<?xml version="1.0" encoding="UTF-8" standalone="no"?>
<!DOCTYPE svg PUBLIC "-//W3C//DTD SVG 1.1//EN"
 "http://www.w3.org/Graphics/SVG/1.1/DTD/svg11.dtd">
<!-- Generated by graphviz version 2.40.1 (0)
 -->
<!-- Title: images Pages: 1 -->
<svg width="273pt" height="308pt"
 viewBox="0.00 0.00 273.00 308.00" xmlns="http://www.w3.org/2000/svg" xmlns:xlink="http://www.w3.org/1999/xlink">
<g id="graph0" class="graph" transform="scale(1 1) rotate(0) translate(4 304)">
<title>images</title>
<polygon fill="#ffffff" stroke="transparent" points="-4,4 -4,-304 269,-304 269,4 -4,4"/>
<!-- images -->
<g id="node1" class="node">
<title>images</title>
<polygon fill="#efefef" stroke="transparent" points="46.5,-220 46.5,-254 219.5,-254 219.5,-220 46.5,-220"/>
<polygon fill="none" stroke="#000000" points="46.5,-220 46.5,-254 219.5,-254 219.5,-220 46.5,-220"/>
<text text-anchor="start" x="60.5" y="-233.6" font-family="Arial Bold" font-size="18.00" fill="#000000">images</text>
<text text-anchor="start" x="106.5" y="-233.6" font-family="Arial" font-size="14.00" fill="#000000"> </text>
<text text-anchor="start" x="114.5" y="-233.6" font-family="Arial" font-size="14.00" fill="#666666">[BASE TABLE]</text>
<polygon fill="none" stroke="#000000" points="46.5,-191 46.5,-220 219.5,-220 219.5,-191 46.5,-191"/>
<text text-anchor="start" x="53.5" y="-202.8" font-family="Arial" font-size="14.00" fill="#000000">id </text>
<text text-anchor="start" x="76.5" y="-202.8" font-family="Arial" font-size="14.00" fill="#666666">[int]</text>
<polygon fill="none" stroke="#000000" points="46.5,-162 46.5,-191 219.5,-191 219.5,-162 46.5,-162"/>
<text text-anchor="start" x="53.5" y="-173.8" font-family="Arial" font-size="14.00" fill="#000000">name </text>
<text text-anchor="start" x="91.5" y="-173.8" font-family="Arial" font-size="14.00" fill="#666666">[varchar(255)]</text>
<polygon fill="none" stroke="#000000" points="46.5,-133 46.5,-162 219.5,-162 219.5,-133 46.5,-133"/>
<text text-anchor="start" x="53.5" y="-144.8" font-family="Arial" font-size="14.00" fill="#000000">owner_id </text>
<text text-anchor="start" x="121.5" y="-144.8" font-family="Arial" font-size="14.00" fill="#666666">[int]</text>
<polygon fill="none" stroke="#000000" points="46.5,-104 46.5,-133 219.5,-133 219.5,-104 46.5,-104"/>
<text text-anchor="start" x="53.5" y="-115.8" font-family="Arial" font-size="14.00" fill="#000000">owner_type </text>
<text text-anchor="start" x="136.5" y="-115.8" font-family="Arial" font-size="14.00" fill="#666666">[int]</text>
<polygon fill="none" stroke="#000000" points="46.5,-75 46.5,-104 219.5,-104 219.5,-75 46.5,-75"/>
<text text-anchor="start" x="53.5" y="-86.8" font-family="Arial" font-size="14.00" fill="#000000">created_at </text>
<text text-anchor="start" x="136.5" y="-86.8" font-family="Arial" font-size="14.00" fill="#666666">[datetime]</text>
<polygon fill="none" stroke="#000000" points="46.5,-46 46.5,-75 219.5,-75 219.5,-46 46.5,-46"/>
<text text-anchor="start" x="53.5" y="-57.8" font-family="Arial" font-size="14.00" fill="#000000">updated_at </text>
<text text-anchor="start" x="136.5" y="-57.8" font-family="Arial" font-size="14.00" fill="#666666">[datetime]</text>
<polygon fill="none" stroke="#000000" stroke-width="3" points="44.5,-44.5 44.5,-255.5 220.5,-255.5 220.5,-44.5 44.5,-44.5"/>
</g>
</g>
</svg>
