<?xml version="1.0" encoding="UTF-8" standalone="no"?>
<!DOCTYPE svg PUBLIC "-//W3C//DTD SVG 1.1//EN"
 "http://www.w3.org/Graphics/SVG/1.1/DTD/svg11.dtd">
<!-- Generated by graphviz version 2.40.1 (0)
 -->
<!-- Title: image_DB Pages: 1 -->
<svg width="612pt" height="302pt"
 viewBox="0.00 0.00 612.00 302.00" xmlns="http://www.w3.org/2000/svg" xmlns:xlink="http://www.w3.org/1999/xlink">
<g id="graph0" class="graph" transform="scale(1 1) rotate(0) translate(4 298)">
<title>image_DB</title>
<polygon fill="#ffffff" stroke="transparent" points="-4,4 -4,-298 608,-298 608,4 -4,4"/>
<!-- images -->
<g id="node1" class="node">
<title>images</title>
<polygon fill="#efefef" stroke="transparent" points="43.5,-217 43.5,-251 216.5,-251 216.5,-217 43.5,-217"/>
<polygon fill="none" stroke="#000000" points="43.5,-217 43.5,-251 216.5,-251 216.5,-217 43.5,-217"/>
<text text-anchor="start" x="57.5" y="-230.6" font-family="Arial Bold" font-size="18.00" fill="#000000">images</text>
<text text-anchor="start" x="103.5" y="-230.6" font-family="Arial" font-size="14.00" fill="#000000"> </text>
<text text-anchor="start" x="111.5" y="-230.6" font-family="Arial" font-size="14.00" fill="#666666">[BASE TABLE]</text>
<polygon fill="none" stroke="#000000" points="43.5,-188 43.5,-217 216.5,-217 216.5,-188 43.5,-188"/>
<text text-anchor="start" x="50.5" y="-199.8" font-family="Arial" font-size="14.00" fill="#000000">id </text>
<text text-anchor="start" x="73.5" y="-199.8" font-family="Arial" font-size="14.00" fill="#666666">[int]</text>
<polygon fill="none" stroke="#000000" points="43.5,-159 43.5,-188 216.5,-188 216.5,-159 43.5,-159"/>
<text text-anchor="start" x="50.5" y="-170.8" font-family="Arial" font-size="14.00" fill="#000000">name </text>
<text text-anchor="start" x="88.5" y="-170.8" font-family="Arial" font-size="14.00" fill="#666666">[varchar(255)]</text>
<polygon fill="none" stroke="#000000" points="43.5,-130 43.5,-159 216.5,-159 216.5,-130 43.5,-130"/>
<text text-anchor="start" x="50.5" y="-141.8" font-family="Arial" font-size="14.00" fill="#000000">owner_id </text>
<text text-anchor="start" x="118.5" y="-141.8" font-family="Arial" font-size="14.00" fill="#666666">[int]</text>
<polygon fill="none" stroke="#000000" points="43.5,-101 43.5,-130 216.5,-130 216.5,-101 43.5,-101"/>
<text text-anchor="start" x="50.5" y="-112.8" font-family="Arial" font-size="14.00" fill="#000000">owner_type </text>
<text text-anchor="start" x="133.5" y="-112.8" font-family="Arial" font-size="14.00" fill="#666666">[int]</text>
<polygon fill="none" stroke="#000000" points="43.5,-72 43.5,-101 216.5,-101 216.5,-72 43.5,-72"/>
<text text-anchor="start" x="50.5" y="-83.8" font-family="Arial" font-size="14.00" fill="#000000">created_at </text>
<text text-anchor="start" x="133.5" y="-83.8" font-family="Arial" font-size="14.00" fill="#666666">[datetime]</text>
<polygon fill="none" stroke="#000000" points="43.5,-43 43.5,-72 216.5,-72 216.5,-43 43.5,-43"/>
<text text-anchor="start" x="50.5" y="-54.8" font-family="Arial" font-size="14.00" fill="#000000">updated_at </text>
<text text-anchor="start" x="133.5" y="-54.8" font-family="Arial" font-size="14.00" fill="#666666">[datetime]</text>
</g>
<!-- schema_migrations -->
<g id="node2" class="node">
<title>schema_migrations</title>
<polygon fill="#efefef" stroke="transparent" points="320.5,-159 320.5,-193 561.5,-193 561.5,-159 320.5,-159"/>
<polygon fill="none" stroke="#000000" points="320.5,-159 320.5,-193 561.5,-193 561.5,-159 320.5,-159"/>
<text text-anchor="start" x="327.5" y="-172.6" font-family="Arial Bold" font-size="18.00" fill="#000000">schema_migrations</text>
<text text-anchor="start" x="455.5" y="-172.6" font-family="Arial" font-size="14.00" fill="#000000"> </text>
<text text-anchor="start" x="463.5" y="-172.6" font-family="Arial" font-size="14.00" fill="#666666">[BASE TABLE]</text>
<polygon fill="none" stroke="#000000" points="320.5,-130 320.5,-159 561.5,-159 561.5,-130 320.5,-130"/>
<text text-anchor="start" x="327.5" y="-141.8" font-family="Arial" font-size="14.00" fill="#000000">version </text>
<text text-anchor="start" x="388.5" y="-141.8" font-family="Arial" font-size="14.00" fill="#666666">[bigint]</text>
<polygon fill="none" stroke="#000000" points="320.5,-101 320.5,-130 561.5,-130 561.5,-101 320.5,-101"/>
<text text-anchor="start" x="327.5" y="-112.8" font-family="Arial" font-size="14.00" fill="#000000">dirty </text>
<text text-anchor="start" x="373.5" y="-112.8" font-family="Arial" font-size="14.00" fill="#666666">[tinyint(1)]</text>
</g>
</g>
</svg>
