<?xml version="1.0" encoding="UTF-8" standalone="no"?>
<!DOCTYPE svg PUBLIC "-//W3C//DTD SVG 1.1//EN"
 "http://www.w3.org/Graphics/SVG/1.1/DTD/svg11.dtd">
<!-- Generated by graphviz version 2.40.1 (0)
 -->
<!-- Title: schema_migrations Pages: 1 -->
<svg width="341pt" height="192pt"
 viewBox="0.00 0.00 341.00 192.00" xmlns="http://www.w3.org/2000/svg" xmlns:xlink="http://www.w3.org/1999/xlink">
<g id="graph0" class="graph" transform="scale(1 1) rotate(0) translate(4 188)">
<title>schema_migrations</title>
<polygon fill="#ffffff" stroke="transparent" points="-4,4 -4,-188 337,-188 337,4 -4,4"/>
<!-- schema_migrations -->
<g id="node1" class="node">
<title>schema_migrations</title>
<polygon fill="#efefef" stroke="transparent" points="46.5,-104 46.5,-138 287.5,-138 287.5,-104 46.5,-104"/>
<polygon fill="none" stroke="#000000" points="46.5,-104 46.5,-138 287.5,-138 287.5,-104 46.5,-104"/>
<text text-anchor="start" x="53.5" y="-117.6" font-family="Arial Bold" font-size="18.00" fill="#000000">schema_migrations</text>
<text text-anchor="start" x="181.5" y="-117.6" font-family="Arial" font-size="14.00" fill="#000000"> </text>
<text text-anchor="start" x="189.5" y="-117.6" font-family="Arial" font-size="14.00" fill="#666666">[BASE TABLE]</text>
<polygon fill="none" stroke="#000000" points="46.5,-75 46.5,-104 287.5,-104 287.5,-75 46.5,-75"/>
<text text-anchor="start" x="53.5" y="-86.8" font-family="Arial" font-size="14.00" fill="#000000">version </text>
<text text-anchor="start" x="114.5" y="-86.8" font-family="Arial" font-size="14.00" fill="#666666">[bigint]</text>
<polygon fill="none" stroke="#000000" points="46.5,-46 46.5,-75 287.5,-75 287.5,-46 46.5,-46"/>
<text text-anchor="start" x="53.5" y="-57.8" font-family="Arial" font-size="14.00" fill="#000000">dirty </text>
<text text-anchor="start" x="99.5" y="-57.8" font-family="Arial" font-size="14.00" fill="#666666">[tinyint(1)]</text>
<polygon fill="none" stroke="#000000" stroke-width="3" points="44.5,-44.5 44.5,-139.5 288.5,-139.5 288.5,-44.5 44.5,-44.5"/>
</g>
</g>
</svg>
