<?xml version="1.0" encoding="UTF-8" standalone="no"?>
<!DOCTYPE svg PUBLIC "-//W3C//DTD SVG 1.1//EN"
 "http://www.w3.org/Graphics/SVG/1.1/DTD/svg11.dtd">
<!-- Generated by graphviz version 2.40.1 (0)
 -->
<!-- Title: members Pages: 1 -->
<svg width="564pt" height="551pt"
 viewBox="0.00 0.00 563.50 551.00" xmlns="http://www.w3.org/2000/svg" xmlns:xlink="http://www.w3.org/1999/xlink">
<g id="graph0" class="graph" transform="scale(1 1) rotate(0) translate(4 547)">
<title>members</title>
<polygon fill="#ffffff" stroke="transparent" points="-4,4 -4,-547 559.5,-547 559.5,4 -4,4"/>
<!-- members -->
<g id="node1" class="node">
<title>members</title>
<polygon fill="#efefef" stroke="transparent" points="337,-462.5 337,-496.5 510,-496.5 510,-462.5 337,-462.5"/>
<polygon fill="none" stroke="#000000" points="337,-462.5 337,-496.5 510,-496.5 510,-462.5 337,-462.5"/>
<text text-anchor="start" x="347.5" y="-476.1" font-family="Arial Bold" font-size="18.00" fill="#000000">members</text>
<text text-anchor="start" x="400.5" y="-476.1" font-family="Arial" font-size="14.00" fill="#000000"> </text>
<text text-anchor="start" x="408.5" y="-476.1" font-family="Arial" font-size="14.00" fill="#666666">[BASE TABLE]</text>
<polygon fill="none" stroke="#000000" points="337,-433.5 337,-462.5 510,-462.5 510,-433.5 337,-433.5"/>
<text text-anchor="start" x="344" y="-445.3" font-family="Arial" font-size="14.00" fill="#000000">id </text>
<text text-anchor="start" x="367" y="-445.3" font-family="Arial" font-size="14.00" fill="#666666">[int]</text>
<polygon fill="none" stroke="#000000" points="337,-404.5 337,-433.5 510,-433.5 510,-404.5 337,-404.5"/>
<text text-anchor="start" x="344" y="-416.3" font-family="Arial" font-size="14.00" fill="#000000">room_id </text>
<text text-anchor="start" x="405" y="-416.3" font-family="Arial" font-size="14.00" fill="#666666">[int]</text>
<polygon fill="none" stroke="#000000" points="337,-375.5 337,-404.5 510,-404.5 510,-375.5 337,-375.5"/>
<text text-anchor="start" x="344" y="-387.3" font-family="Arial" font-size="14.00" fill="#000000">user_id </text>
<text text-anchor="start" x="405" y="-387.3" font-family="Arial" font-size="14.00" fill="#666666">[int]</text>
<polygon fill="none" stroke="#000000" points="337,-346.5 337,-375.5 510,-375.5 510,-346.5 337,-346.5"/>
<text text-anchor="start" x="344" y="-358.3" font-family="Arial" font-size="14.00" fill="#000000">created_at </text>
<text text-anchor="start" x="427" y="-358.3" font-family="Arial" font-size="14.00" fill="#666666">[datetime]</text>
<polygon fill="none" stroke="#000000" points="337,-317.5 337,-346.5 510,-346.5 510,-317.5 337,-317.5"/>
<text text-anchor="start" x="344" y="-329.3" font-family="Arial" font-size="14.00" fill="#000000">updated_at </text>
<text text-anchor="start" x="427" y="-329.3" font-family="Arial" font-size="14.00" fill="#666666">[datetime]</text>
<polygon fill="none" stroke="#000000" stroke-width="3" points="335,-316.5 335,-498.5 511,-498.5 511,-316.5 335,-316.5"/>
</g>
<!-- rooms -->
<g id="node2" class="node">
<title>rooms</title>
<polygon fill="#efefef" stroke="transparent" points="337,-159 337,-193 510,-193 510,-159 337,-159"/>
<polygon fill="none" stroke="#000000" points="337,-159 337,-193 510,-193 510,-159 337,-159"/>
<text text-anchor="start" x="355" y="-172.6" font-family="Arial Bold" font-size="18.00" fill="#000000">rooms</text>
<text text-anchor="start" x="393" y="-172.6" font-family="Arial" font-size="14.00" fill="#000000"> </text>
<text text-anchor="start" x="401" y="-172.6" font-family="Arial" font-size="14.00" fill="#666666">[BASE TABLE]</text>
<polygon fill="none" stroke="#000000" points="337,-130 337,-159 510,-159 510,-130 337,-130"/>
<text text-anchor="start" x="344" y="-141.8" font-family="Arial" font-size="14.00" fill="#000000">id </text>
<text text-anchor="start" x="367" y="-141.8" font-family="Arial" font-size="14.00" fill="#666666">[int]</text>
<polygon fill="none" stroke="#000000" points="337,-101 337,-130 510,-130 510,-101 337,-101"/>
<text text-anchor="start" x="344" y="-112.8" font-family="Arial" font-size="14.00" fill="#000000">post_id </text>
<text text-anchor="start" x="405" y="-112.8" font-family="Arial" font-size="14.00" fill="#666666">[int]</text>
<polygon fill="none" stroke="#000000" points="337,-72 337,-101 510,-101 510,-72 337,-72"/>
<text text-anchor="start" x="344" y="-83.8" font-family="Arial" font-size="14.00" fill="#000000">created_at </text>
<text text-anchor="start" x="427" y="-83.8" font-family="Arial" font-size="14.00" fill="#666666">[datetime]</text>
<polygon fill="none" stroke="#000000" points="337,-43 337,-72 510,-72 510,-43 337,-43"/>
<text text-anchor="start" x="344" y="-54.8" font-family="Arial" font-size="14.00" fill="#000000">updated_at </text>
<text text-anchor="start" x="427" y="-54.8" font-family="Arial" font-size="14.00" fill="#666666">[datetime]</text>
</g>
<!-- members&#45;&gt;rooms -->
<g id="edge1" class="edge">
<title>members:room_id&#45;&gt;rooms:id</title>
<path fill="none" stroke="#000000" d="M327.2219,-416.9578C276.1957,-389.2849 279.4551,-145 337,-145"/>
<polygon fill="#000000" stroke="#000000" points="327.3217,-416.9837 335.8677,-423.8552 332.1609,-418.2419 337,-419.5 337,-419.5 337,-419.5 332.1609,-418.2419 338.1323,-415.1448 327.3217,-416.9837 327.3217,-416.9837"/>
<text text-anchor="start" x="7.5" y="-429" font-family="Arial" font-size="10.00" fill="#000000">FOREIGN KEY (room_id) REFERENCES rooms (id)</text>
</g>
</g>
</svg>
