<?xml version="1.0" encoding="UTF-8" standalone="no"?>
<!DOCTYPE svg PUBLIC "-//W3C//DTD SVG 1.1//EN"
 "http://www.w3.org/Graphics/SVG/1.1/DTD/svg11.dtd">
<!-- Generated by graphviz version 2.40.1 (0)
 -->
<!-- Title: messages Pages: 1 -->
<svg width="565pt" height="580pt"
 viewBox="0.00 0.00 565.00 580.00" xmlns="http://www.w3.org/2000/svg" xmlns:xlink="http://www.w3.org/1999/xlink">
<g id="graph0" class="graph" transform="scale(1 1) rotate(0) translate(4 576)">
<title>messages</title>
<polygon fill="#ffffff" stroke="transparent" points="-4,4 -4,-576 561,-576 561,4 -4,4"/>
<!-- messages -->
<g id="node1" class="node">
<title>messages</title>
<polygon fill="#efefef" stroke="transparent" points="337,-492 337,-526 511,-526 511,-492 337,-492"/>
<polygon fill="none" stroke="#000000" points="337,-492 337,-526 511,-526 511,-492 337,-492"/>
<text text-anchor="start" x="344" y="-505.6" font-family="Arial Bold" font-size="18.00" fill="#000000">messages</text>
<text text-anchor="start" x="405" y="-505.6" font-family="Arial" font-size="14.00" fill="#000000"> </text>
<text text-anchor="start" x="413" y="-505.6" font-family="Arial" font-size="14.00" fill="#666666">[BASE TABLE]</text>
<polygon fill="none" stroke="#000000" points="337,-463 337,-492 511,-492 511,-463 337,-463"/>
<text text-anchor="start" x="344" y="-474.8" font-family="Arial" font-size="14.00" fill="#000000">id </text>
<text text-anchor="start" x="367" y="-474.8" font-family="Arial" font-size="14.00" fill="#666666">[int]</text>
<polygon fill="none" stroke="#000000" points="337,-434 337,-463 511,-463 511,-434 337,-434"/>
<text text-anchor="start" x="344" y="-445.8" font-family="Arial" font-size="14.00" fill="#000000">body </text>
<text text-anchor="start" x="382" y="-445.8" font-family="Arial" font-size="14.00" fill="#666666">[varchar(255)]</text>
<polygon fill="none" stroke="#000000" points="337,-405 337,-434 511,-434 511,-405 337,-405"/>
<text text-anchor="start" x="344" y="-416.8" font-family="Arial" font-size="14.00" fill="#000000">room_id </text>
<text text-anchor="start" x="405" y="-416.8" font-family="Arial" font-size="14.00" fill="#666666">[int]</text>
<polygon fill="none" stroke="#000000" points="337,-376 337,-405 511,-405 511,-376 337,-376"/>
<text text-anchor="start" x="344" y="-387.8" font-family="Arial" font-size="14.00" fill="#000000">user_id </text>
<text text-anchor="start" x="405" y="-387.8" font-family="Arial" font-size="14.00" fill="#666666">[int]</text>
<polygon fill="none" stroke="#000000" points="337,-347 337,-376 511,-376 511,-347 337,-347"/>
<text text-anchor="start" x="344" y="-358.8" font-family="Arial" font-size="14.00" fill="#000000">created_at </text>
<text text-anchor="start" x="427" y="-358.8" font-family="Arial" font-size="14.00" fill="#666666">[datetime]</text>
<polygon fill="none" stroke="#000000" points="337,-318 337,-347 511,-347 511,-318 337,-318"/>
<text text-anchor="start" x="344" y="-329.8" font-family="Arial" font-size="14.00" fill="#000000">updated_at </text>
<text text-anchor="start" x="427" y="-329.8" font-family="Arial" font-size="14.00" fill="#666666">[datetime]</text>
<polygon fill="none" stroke="#000000" stroke-width="3" points="335.5,-316.5 335.5,-527.5 512.5,-527.5 512.5,-316.5 335.5,-316.5"/>
</g>
<!-- rooms -->
<g id="node2" class="node">
<title>rooms</title>
<polygon fill="#efefef" stroke="transparent" points="337,-159 337,-193 510,-193 510,-159 337,-159"/>
<polygon fill="none" stroke="#000000" points="337,-159 337,-193 510,-193 510,-159 337,-159"/>
<text text-anchor="start" x="355" y="-172.6" font-family="Arial Bold" font-size="18.00" fill="#000000">rooms</text>
<text text-anchor="start" x="393" y="-172.6" font-family="Arial" font-size="14.00" fill="#000000"> </text>
<text text-anchor="start" x="401" y="-172.6" font-family="Arial" font-size="14.00" fill="#666666">[BASE TABLE]</text>
<polygon fill="none" stroke="#000000" points="337,-130 337,-159 510,-159 510,-130 337,-130"/>
<text text-anchor="start" x="344" y="-141.8" font-family="Arial" font-size="14.00" fill="#000000">id </text>
<text text-anchor="start" x="367" y="-141.8" font-family="Arial" font-size="14.00" fill="#666666">[int]</text>
<polygon fill="none" stroke="#000000" points="337,-101 337,-130 510,-130 510,-101 337,-101"/>
<text text-anchor="start" x="344" y="-112.8" font-family="Arial" font-size="14.00" fill="#000000">post_id </text>
<text text-anchor="start" x="405" y="-112.8" font-family="Arial" font-size="14.00" fill="#666666">[int]</text>
<polygon fill="none" stroke="#000000" points="337,-72 337,-101 510,-101 510,-72 337,-72"/>
<text text-anchor="start" x="344" y="-83.8" font-family="Arial" font-size="14.00" fill="#000000">created_at </text>
<text text-anchor="start" x="427" y="-83.8" font-family="Arial" font-size="14.00" fill="#666666">[datetime]</text>
<polygon fill="none" stroke="#000000" points="337,-43 337,-72 510,-72 510,-43 337,-43"/>
<text text-anchor="start" x="344" y="-54.8" font-family="Arial" font-size="14.00" fill="#000000">updated_at </text>
<text text-anchor="start" x="427" y="-54.8" font-family="Arial" font-size="14.00" fill="#666666">[datetime]</text>
</g>
<!-- messages&#45;&gt;rooms -->
<g id="edge1" class="edge">
<title>messages:room_id&#45;&gt;rooms:id</title>
<path fill="none" stroke="#000000" d="M326.7461,-418.0988C274.4527,-408.2358 298.1109,-319.8147 337,-272 386.5546,-211.0719 460.4454,-296.9281 510,-236 535.5196,-204.6232 550.4444,-145 510,-145"/>
<polygon fill="#000000" stroke="#000000" points="327.0384,-418.1244 336.606,-423.4827 332.0192,-418.5622 337,-419 337,-419 337,-419 332.0192,-418.5622 337.394,-414.5173 327.0384,-418.1244 327.0384,-418.1244"/>
<text text-anchor="start" x="7.5" y="-428.5" font-family="Arial" font-size="10.00" fill="#000000">FOREIGN KEY (room_id) REFERENCES rooms (id)</text>
</g>
</g>
</svg>
