<?xml version="1.0" encoding="UTF-8" standalone="no"?>
<!DOCTYPE svg PUBLIC "-//W3C//DTD SVG 1.1//EN"
 "http://www.w3.org/Graphics/SVG/1.1/DTD/svg11.dtd">
<!-- Generated by graphviz version 2.40.1 (0)
 -->
<!-- Title: outbox Pages: 1 -->
<svg width="333pt" height="366pt"
 viewBox="0.00 0.00 333.00 366.00" xmlns="http://www.w3.org/2000/svg" xmlns:xlink="http://www.w3.org/1999/xlink">
<g id="graph0" class="graph" transform="scale(1 1) rotate(0) translate(4 362)">
<title>outbox</title>
<polygon fill="#ffffff" stroke="transparent" points="-4,4 -4,-362 329,-362 329,4 -4,4"/>
<!-- outbox -->
<g id="node1" class="node">
<title>outbox</title>
<polygon fill="#efefef" stroke="transparent" points="46.5,-278 46.5,-312 279.5,-312 279.5,-278 46.5,-278"/>
<polygon fill="none" stroke="#000000" points="46.5,-278 46.5,-312 279.5,-312 279.5,-278 46.5,-278"/>
<text text-anchor="start" x="90.5" y="-291.6" font-family="Arial Bold" font-size="18.00" fill="#000000">outbox</text>
<text text-anchor="start" x="136.5" y="-291.6" font-family="Arial" font-size="14.00" fill="#000000"> </text>
<text text-anchor="start" x="144.5" y="-291.6" font-family="Arial" font-size="14.00" fill="#666666">[BASE TABLE]</text>
<polygon fill="none" stroke="#000000" points="46.5,-249 46.5,-278 279.5,-278 279.5,-249 46.5,-249"/>
<text text-anchor="start" x="53.5" y="-260.8" font-family="Arial" font-size="14.00" fill="#000000">id </text>
<text text-anchor="start" x="76.5" y="-260.8" font-family="Arial" font-size="14.00" fill="#666666">[varchar(255)]</text>
<polygon fill="none" stroke="#000000" points="46.5,-220 46.5,-249 279.5,-249 279.5,-220 46.5,-220"/>
<text text-anchor="start" x="53.5" y="-231.8" font-family="Arial" font-size="14.00" fill="#000000">event_type </text>
<text text-anchor="start" x="136.5" y="-231.8" font-family="Arial" font-size="14.00" fill="#666666">[varchar(255)]</text>
<polygon fill="none" stroke="#000000" points="46.5,-191 46.5,-220 279.5,-220 279.5,-191 46.5,-191"/>
<text text-anchor="start" x="53.5" y="-202.8" font-family="Arial" font-size="14.00" fill="#000000">event_data </text>
<text text-anchor="start" x="136.5" y="-202.8" font-family="Arial" font-size="14.00" fill="#666666">[json]</text>
<polygon fill="none" stroke="#000000" points="46.5,-162 46.5,-191 279.5,-191 279.5,-162 46.5,-162"/>
<text text-anchor="start" x="53.5" y="-173.8" font-family="Arial" font-size="14.00" fill="#000000">aggregate_id </text>
<text text-anchor="start" x="151.5" y="-173.8" font-family="Arial" font-size="14.00" fill="#666666">[varchar(255)]</text>
<polygon fill="none" stroke="#000000" points="46.5,-133 46.5,-162 279.5,-162 279.5,-133 46.5,-133"/>
<text text-anchor="start" x="53.5" y="-144.8" font-family="Arial" font-size="14.00" fill="#000000">aggregate_type </text>
<text text-anchor="start" x="166.5" y="-144.8" font-family="Arial" font-size="14.00" fill="#666666">[varchar(255)]</text>
<polygon fill="none" stroke="#000000" points="46.5,-104 46.5,-133 279.5,-133 279.5,-104 46.5,-104"/>
<text text-anchor="start" x="53.5" y="-115.8" font-family="Arial" font-size="14.00" fill="#000000">channel </text>
<text text-anchor="start" x="114.5" y="-115.8" font-family="Arial" font-size="14.00" fill="#666666">[varchar(255)]</text>
<polygon fill="none" stroke="#000000" points="46.5,-75 46.5,-104 279.5,-104 279.5,-75 46.5,-75"/>
<text text-anchor="start" x="53.5" y="-86.8" font-family="Arial" font-size="14.00" fill="#000000">created_at </text>
<text text-anchor="start" x="136.5" y="-86.8" font-family="Arial" font-size="14.00" fill="#666666">[datetime]</text>
<polygon fill="none" stroke="#000000" points="46.5,-46 46.5,-75 279.5,-75 279.5,-46 46.5,-46"/>
<text text-anchor="start" x="53.5" y="-57.8" font-family="Arial" font-size="14.00" fill="#000000">updated_at </text>
<text text-anchor="start" x="136.5" y="-57.8" font-family="Arial" font-size="14.00" fill="#666666">[datetime]</text>
<polygon fill="none" stroke="#000000" stroke-width="3" points="44.5,-44.5 44.5,-313.5 280.5,-313.5 280.5,-44.5 44.5,-44.5"/>
</g>
</g>
</svg>
