<?xml version="1.0" encoding="UTF-8" standalone="no"?>
<!DOCTYPE svg PUBLIC "-//W3C//DTD SVG 1.1//EN"
 "http://www.w3.org/Graphics/SVG/1.1/DTD/svg11.dtd">
<!-- Generated by graphviz version 2.40.1 (0)
 -->
<!-- Title: rooms Pages: 1 -->
<svg width="786pt" height="580pt"
 viewBox="0.00 0.00 786.00 580.00" xmlns="http://www.w3.org/2000/svg" xmlns:xlink="http://www.w3.org/1999/xlink">
<g id="graph0" class="graph" transform="scale(1 1) rotate(0) translate(4 576)">
<title>rooms</title>
<polygon fill="#ffffff" stroke="transparent" points="-4,4 -4,-576 782,-576 782,4 -4,4"/>
<!-- rooms -->
<g id="node1" class="node">
<title>rooms</title>
<polygon fill="#efefef" stroke="transparent" points="302,-162 302,-196 475,-196 475,-162 302,-162"/>
<polygon fill="none" stroke="#000000" points="302,-162 302,-196 475,-196 475,-162 302,-162"/>
<text text-anchor="start" x="320" y="-175.6" font-family="Arial Bold" font-size="18.00" fill="#000000">rooms</text>
<text text-anchor="start" x="358" y="-175.6" font-family="Arial" font-size="14.00" fill="#000000"> </text>
<text text-anchor="start" x="366" y="-175.6" font-family="Arial" font-size="14.00" fill="#666666">[BASE TABLE]</text>
<polygon fill="none" stroke="#000000" points="302,-133 302,-162 475,-162 475,-133 302,-133"/>
<text text-anchor="start" x="309" y="-144.8" font-family="Arial" font-size="14.00" fill="#000000">id </text>
<text text-anchor="start" x="332" y="-144.8" font-family="Arial" font-size="14.00" fill="#666666">[int(11)]</text>
<polygon fill="none" stroke="#000000" points="302,-104 302,-133 475,-133 475,-104 302,-104"/>
<text text-anchor="start" x="309" y="-115.8" font-family="Arial" font-size="14.00" fill="#000000">post_id </text>
<text text-anchor="start" x="370" y="-115.8" font-family="Arial" font-size="14.00" fill="#666666">[int(11)]</text>
<polygon fill="none" stroke="#000000" points="302,-75 302,-104 475,-104 475,-75 302,-75"/>
<text text-anchor="start" x="309" y="-86.8" font-family="Arial" font-size="14.00" fill="#000000">created_at </text>
<text text-anchor="start" x="392" y="-86.8" font-family="Arial" font-size="14.00" fill="#666666">[datetime]</text>
<polygon fill="none" stroke="#000000" points="302,-46 302,-75 475,-75 475,-46 302,-46"/>
<text text-anchor="start" x="309" y="-57.8" font-family="Arial" font-size="14.00" fill="#000000">updated_at </text>
<text text-anchor="start" x="392" y="-57.8" font-family="Arial" font-size="14.00" fill="#666666">[datetime]</text>
<polygon fill="none" stroke="#000000" stroke-width="3" points="300,-44.5 300,-197.5 476,-197.5 476,-44.5 300,-44.5"/>
</g>
<!-- members -->
<g id="node2" class="node">
<title>members</title>
<polygon fill="#efefef" stroke="transparent" points="164,-480 164,-514 337,-514 337,-480 164,-480"/>
<polygon fill="none" stroke="#000000" points="164,-480 164,-514 337,-514 337,-480 164,-480"/>
<text text-anchor="start" x="174.5" y="-493.6" font-family="Arial Bold" font-size="18.00" fill="#000000">members</text>
<text text-anchor="start" x="227.5" y="-493.6" font-family="Arial" font-size="14.00" fill="#000000"> </text>
<text text-anchor="start" x="235.5" y="-493.6" font-family="Arial" font-size="14.00" fill="#666666">[BASE TABLE]</text>
<polygon fill="none" stroke="#000000" points="164,-451 164,-480 337,-480 337,-451 164,-451"/>
<text text-anchor="start" x="171" y="-462.8" font-family="Arial" font-size="14.00" fill="#000000">id </text>
<text text-anchor="start" x="194" y="-462.8" font-family="Arial" font-size="14.00" fill="#666666">[int(11)]</text>
<polygon fill="none" stroke="#000000" points="164,-422 164,-451 337,-451 337,-422 164,-422"/>
<text text-anchor="start" x="171" y="-433.8" font-family="Arial" font-size="14.00" fill="#000000">room_id </text>
<text text-anchor="start" x="232" y="-433.8" font-family="Arial" font-size="14.00" fill="#666666">[int(11)]</text>
<polygon fill="none" stroke="#000000" points="164,-393 164,-422 337,-422 337,-393 164,-393"/>
<text text-anchor="start" x="171" y="-404.8" font-family="Arial" font-size="14.00" fill="#000000">user_id </text>
<text text-anchor="start" x="232" y="-404.8" font-family="Arial" font-size="14.00" fill="#666666">[int(11)]</text>
<polygon fill="none" stroke="#000000" points="164,-364 164,-393 337,-393 337,-364 164,-364"/>
<text text-anchor="start" x="171" y="-375.8" font-family="Arial" font-size="14.00" fill="#000000">created_at </text>
<text text-anchor="start" x="254" y="-375.8" font-family="Arial" font-size="14.00" fill="#666666">[datetime]</text>
<polygon fill="none" stroke="#000000" points="164,-335 164,-364 337,-364 337,-335 164,-335"/>
<text text-anchor="start" x="171" y="-346.8" font-family="Arial" font-size="14.00" fill="#000000">updated_at </text>
<text text-anchor="start" x="254" y="-346.8" font-family="Arial" font-size="14.00" fill="#666666">[datetime]</text>
</g>
<!-- members&#45;&gt;rooms -->
<g id="edge1" class="edge">
<title>members:room_id&#45;&gt;rooms:id</title>
<path fill="none" stroke="#000000" d="M347.1907,-436.1642C396.0309,-427.3248 355.0418,-350.2045 337,-292.5 328.8509,-266.4362 310.1491,-268.0638 302,-242 289.533,-202.1258 260.2222,-148 302,-148"/>
<polygon fill="#000000" stroke="#000000" points="346.9665,-436.1825 336.6321,-432.5151 341.9833,-436.5912 337,-437 337,-437 337,-437 341.9833,-436.5912 337.3679,-441.4849 346.9665,-436.1825 346.9665,-436.1825"/>
<text text-anchor="start" x="7.5" y="-446.5" font-family="Arial" font-size="10.00" fill="#000000">FOREIGN KEY (room_id) REFERENCES rooms (id)</text>
</g>
<!-- messages -->
<g id="node3" class="node">
<title>messages</title>
<polygon fill="#efefef" stroke="transparent" points="441,-495 441,-529 615,-529 615,-495 441,-495"/>
<polygon fill="none" stroke="#000000" points="441,-495 441,-529 615,-529 615,-495 441,-495"/>
<text text-anchor="start" x="448" y="-508.6" font-family="Arial Bold" font-size="18.00" fill="#000000">messages</text>
<text text-anchor="start" x="509" y="-508.6" font-family="Arial" font-size="14.00" fill="#000000"> </text>
<text text-anchor="start" x="517" y="-508.6" font-family="Arial" font-size="14.00" fill="#666666">[BASE TABLE]</text>
<polygon fill="none" stroke="#000000" points="441,-466 441,-495 615,-495 615,-466 441,-466"/>
<text text-anchor="start" x="448" y="-477.8" font-family="Arial" font-size="14.00" fill="#000000">id </text>
<text text-anchor="start" x="471" y="-477.8" font-family="Arial" font-size="14.00" fill="#666666">[int(11)]</text>
<polygon fill="none" stroke="#000000" points="441,-437 441,-466 615,-466 615,-437 441,-437"/>
<text text-anchor="start" x="448" y="-448.8" font-family="Arial" font-size="14.00" fill="#000000">body </text>
<text text-anchor="start" x="486" y="-448.8" font-family="Arial" font-size="14.00" fill="#666666">[varchar(255)]</text>
<polygon fill="none" stroke="#000000" points="441,-408 441,-437 615,-437 615,-408 441,-408"/>
<text text-anchor="start" x="448" y="-419.8" font-family="Arial" font-size="14.00" fill="#000000">room_id </text>
<text text-anchor="start" x="509" y="-419.8" font-family="Arial" font-size="14.00" fill="#666666">[int(11)]</text>
<polygon fill="none" stroke="#000000" points="441,-379 441,-408 615,-408 615,-379 441,-379"/>
<text text-anchor="start" x="448" y="-390.8" font-family="Arial" font-size="14.00" fill="#000000">user_id </text>
<text text-anchor="start" x="509" y="-390.8" font-family="Arial" font-size="14.00" fill="#666666">[int(11)]</text>
<polygon fill="none" stroke="#000000" points="441,-350 441,-379 615,-379 615,-350 441,-350"/>
<text text-anchor="start" x="448" y="-361.8" font-family="Arial" font-size="14.00" fill="#000000">created_at </text>
<text text-anchor="start" x="531" y="-361.8" font-family="Arial" font-size="14.00" fill="#666666">[datetime]</text>
<polygon fill="none" stroke="#000000" points="441,-321 441,-350 615,-350 615,-321 441,-321"/>
<text text-anchor="start" x="448" y="-332.8" font-family="Arial" font-size="14.00" fill="#000000">updated_at </text>
<text text-anchor="start" x="531" y="-332.8" font-family="Arial" font-size="14.00" fill="#666666">[datetime]</text>
</g>
<!-- messages&#45;&gt;rooms -->
<g id="edge2" class="edge">
<title>messages:room_id&#45;&gt;rooms:id</title>
<path fill="none" stroke="#000000" d="M430.8005,-421.1514C381.6718,-412.1804 418.7406,-333.9873 441,-278 449.1308,-257.5492 466.8692,-262.4508 475,-242 490.4348,-203.178 516.7778,-148 475,-148"/>
<polygon fill="#000000" stroke="#000000" points="431.0344,-421.1708 440.6269,-426.4845 436.0172,-421.5854 441,-422 441,-422 441,-422 436.0172,-421.5854 441.3731,-417.5155 431.0344,-421.1708 431.0344,-421.1708"/>
<text text-anchor="start" x="448.5" y="-431.5" font-family="Arial" font-size="10.00" fill="#000000">FOREIGN KEY (room_id) REFERENCES rooms (id)</text>
</g>
</g>
</svg>
