<?xml version="1.0" encoding="UTF-8" standalone="no"?>
<!DOCTYPE svg PUBLIC "-//W3C//DTD SVG 1.1//EN"
 "http://www.w3.org/Graphics/SVG/1.1/DTD/svg11.dtd">
<!-- Generated by graphviz version 2.40.1 (0)
 -->
<!-- Title: chat_DB Pages: 1 -->
<svg width="1349pt" height="632pt"
 viewBox="0.00 0.00 1348.50 632.00" xmlns="http://www.w3.org/2000/svg" xmlns:xlink="http://www.w3.org/1999/xlink">
<g id="graph0" class="graph" transform="scale(1 1) rotate(0) translate(4 628)">
<title>chat_DB</title>
<polygon fill="#ffffff" stroke="transparent" points="-4,4 -4,-628 1344.5,-628 1344.5,4 -4,4"/>
<!-- members -->
<g id="node1" class="node">
<title>members</title>
<polygon fill="#efefef" stroke="transparent" points="164,-503 164,-537 337,-537 337,-503 164,-503"/>
<polygon fill="none" stroke="#000000" points="164,-503 164,-537 337,-537 337,-503 164,-503"/>
<text text-anchor="start" x="174.5" y="-516.6" font-family="Arial Bold" font-size="18.00" fill="#000000">members</text>
<text text-anchor="start" x="227.5" y="-516.6" font-family="Arial" font-size="14.00" fill="#000000"> </text>
<text text-anchor="start" x="235.5" y="-516.6" font-family="Arial" font-size="14.00" fill="#666666">[BASE TABLE]</text>
<polygon fill="none" stroke="#000000" points="164,-474 164,-503 337,-503 337,-474 164,-474"/>
<text text-anchor="start" x="171" y="-485.8" font-family="Arial" font-size="14.00" fill="#000000">id </text>
<text text-anchor="start" x="194" y="-485.8" font-family="Arial" font-size="14.00" fill="#666666">[int]</text>
<polygon fill="none" stroke="#000000" points="164,-445 164,-474 337,-474 337,-445 164,-445"/>
<text text-anchor="start" x="171" y="-456.8" font-family="Arial" font-size="14.00" fill="#000000">room_id </text>
<text text-anchor="start" x="232" y="-456.8" font-family="Arial" font-size="14.00" fill="#666666">[int]</text>
<polygon fill="none" stroke="#000000" points="164,-416 164,-445 337,-445 337,-416 164,-416"/>
<text text-anchor="start" x="171" y="-427.8" font-family="Arial" font-size="14.00" fill="#000000">user_id </text>
<text text-anchor="start" x="232" y="-427.8" font-family="Arial" font-size="14.00" fill="#666666">[int]</text>
<polygon fill="none" stroke="#000000" points="164,-387 164,-416 337,-416 337,-387 164,-387"/>
<text text-anchor="start" x="171" y="-398.8" font-family="Arial" font-size="14.00" fill="#000000">created_at </text>
<text text-anchor="start" x="254" y="-398.8" font-family="Arial" font-size="14.00" fill="#666666">[datetime]</text>
<polygon fill="none" stroke="#000000" points="164,-358 164,-387 337,-387 337,-358 164,-358"/>
<text text-anchor="start" x="171" y="-369.8" font-family="Arial" font-size="14.00" fill="#000000">updated_at </text>
<text text-anchor="start" x="254" y="-369.8" font-family="Arial" font-size="14.00" fill="#666666">[datetime]</text>
</g>
<!-- rooms -->
<g id="node4" class="node">
<title>rooms</title>
<polygon fill="#efefef" stroke="transparent" points="302,-159 302,-193 475,-193 475,-159 302,-159"/>
<polygon fill="none" stroke="#000000" points="302,-159 302,-193 475,-193 475,-159 302,-159"/>
<text text-anchor="start" x="320" y="-172.6" font-family="Arial Bold" font-size="18.00" fill="#000000">rooms</text>
<text text-anchor="start" x="358" y="-172.6" font-family="Arial" font-size="14.00" fill="#000000"> </text>
<text text-anchor="start" x="366" y="-172.6" font-family="Arial" font-size="14.00" fill="#666666">[BASE TABLE]</text>
<polygon fill="none" stroke="#000000" points="302,-130 302,-159 475,-159 475,-130 302,-130"/>
<text text-anchor="start" x="309" y="-141.8" font-family="Arial" font-size="14.00" fill="#000000">id </text>
<text text-anchor="start" x="332" y="-141.8" font-family="Arial" font-size="14.00" fill="#666666">[int]</text>
<polygon fill="none" stroke="#000000" points="302,-101 302,-130 475,-130 475,-101 302,-101"/>
<text text-anchor="start" x="309" y="-112.8" font-family="Arial" font-size="14.00" fill="#000000">post_id </text>
<text text-anchor="start" x="370" y="-112.8" font-family="Arial" font-size="14.00" fill="#666666">[int]</text>
<polygon fill="none" stroke="#000000" points="302,-72 302,-101 475,-101 475,-72 302,-72"/>
<text text-anchor="start" x="309" y="-83.8" font-family="Arial" font-size="14.00" fill="#000000">created_at </text>
<text text-anchor="start" x="392" y="-83.8" font-family="Arial" font-size="14.00" fill="#666666">[datetime]</text>
<polygon fill="none" stroke="#000000" points="302,-43 302,-72 475,-72 475,-43 302,-43"/>
<text text-anchor="start" x="309" y="-54.8" font-family="Arial" font-size="14.00" fill="#000000">updated_at </text>
<text text-anchor="start" x="392" y="-54.8" font-family="Arial" font-size="14.00" fill="#666666">[datetime]</text>
</g>
<!-- members&#45;&gt;rooms -->
<g id="edge1" class="edge">
<title>members:room_id&#45;&gt;rooms:id</title>
<path fill="none" stroke="#000000" d="M347.1331,-459.1792C395.3753,-450.4958 349.4471,-374.664 337,-315.5 329.052,-277.7211 309.948,-273.7789 302,-236 293.6735,-196.422 261.5556,-145 302,-145"/>
<polygon fill="#000000" stroke="#000000" points="346.9674,-459.1925 336.6366,-455.5147 341.9837,-459.5963 337,-460 337,-460 337,-460 341.9837,-459.5963 337.3634,-464.4853 346.9674,-459.1925 346.9674,-459.1925"/>
<text text-anchor="start" x="7.5" y="-469.5" font-family="Arial" font-size="10.00" fill="#000000">FOREIGN KEY (room_id) REFERENCES rooms (id)</text>
</g>
<!-- messages -->
<g id="node2" class="node">
<title>messages</title>
<polygon fill="#efefef" stroke="transparent" points="441,-518 441,-552 615,-552 615,-518 441,-518"/>
<polygon fill="none" stroke="#000000" points="441,-518 441,-552 615,-552 615,-518 441,-518"/>
<text text-anchor="start" x="448" y="-531.6" font-family="Arial Bold" font-size="18.00" fill="#000000">messages</text>
<text text-anchor="start" x="509" y="-531.6" font-family="Arial" font-size="14.00" fill="#000000"> </text>
<text text-anchor="start" x="517" y="-531.6" font-family="Arial" font-size="14.00" fill="#666666">[BASE TABLE]</text>
<polygon fill="none" stroke="#000000" points="441,-489 441,-518 615,-518 615,-489 441,-489"/>
<text text-anchor="start" x="448" y="-500.8" font-family="Arial" font-size="14.00" fill="#000000">id </text>
<text text-anchor="start" x="471" y="-500.8" font-family="Arial" font-size="14.00" fill="#666666">[int]</text>
<polygon fill="none" stroke="#000000" points="441,-460 441,-489 615,-489 615,-460 441,-460"/>
<text text-anchor="start" x="448" y="-471.8" font-family="Arial" font-size="14.00" fill="#000000">body </text>
<text text-anchor="start" x="486" y="-471.8" font-family="Arial" font-size="14.00" fill="#666666">[varchar(255)]</text>
<polygon fill="none" stroke="#000000" points="441,-431 441,-460 615,-460 615,-431 441,-431"/>
<text text-anchor="start" x="448" y="-442.8" font-family="Arial" font-size="14.00" fill="#000000">room_id </text>
<text text-anchor="start" x="509" y="-442.8" font-family="Arial" font-size="14.00" fill="#666666">[int]</text>
<polygon fill="none" stroke="#000000" points="441,-402 441,-431 615,-431 615,-402 441,-402"/>
<text text-anchor="start" x="448" y="-413.8" font-family="Arial" font-size="14.00" fill="#000000">user_id </text>
<text text-anchor="start" x="509" y="-413.8" font-family="Arial" font-size="14.00" fill="#666666">[int]</text>
<polygon fill="none" stroke="#000000" points="441,-373 441,-402 615,-402 615,-373 441,-373"/>
<text text-anchor="start" x="448" y="-384.8" font-family="Arial" font-size="14.00" fill="#000000">created_at </text>
<text text-anchor="start" x="531" y="-384.8" font-family="Arial" font-size="14.00" fill="#666666">[datetime]</text>
<polygon fill="none" stroke="#000000" points="441,-344 441,-373 615,-373 615,-344 441,-344"/>
<text text-anchor="start" x="448" y="-355.8" font-family="Arial" font-size="14.00" fill="#000000">updated_at </text>
<text text-anchor="start" x="531" y="-355.8" font-family="Arial" font-size="14.00" fill="#666666">[datetime]</text>
</g>
<!-- messages&#45;&gt;rooms -->
<g id="edge2" class="edge">
<title>messages:room_id&#45;&gt;rooms:id</title>
<path fill="none" stroke="#000000" d="M430.8816,-444.1774C382.5953,-435.4759 426.6217,-359.5092 441,-301 448.7804,-269.3396 467.2196,-267.6604 475,-236 484.6518,-196.7241 515.4444,-145 475,-145"/>
<polygon fill="#000000" stroke="#000000" points="431.0329,-444.1896 440.6353,-449.4852 436.0164,-444.5948 441,-445 441,-445 441,-445 436.0164,-444.5948 441.3647,-440.5148 431.0329,-444.1896 431.0329,-444.1896"/>
<text text-anchor="start" x="195.75" y="-429.5" font-family="Arial" font-size="10.00" fill="#000000">FOREIGN KEY (room_id) REFERENCES rooms (id)</text>
</g>
<!-- outbox -->
<g id="node3" class="node">
<title>outbox</title>
<polygon fill="#efefef" stroke="transparent" points="720,-547 720,-581 953,-581 953,-547 720,-547"/>
<polygon fill="none" stroke="#000000" points="720,-547 720,-581 953,-581 953,-547 720,-547"/>
<text text-anchor="start" x="764" y="-560.6" font-family="Arial Bold" font-size="18.00" fill="#000000">outbox</text>
<text text-anchor="start" x="810" y="-560.6" font-family="Arial" font-size="14.00" fill="#000000"> </text>
<text text-anchor="start" x="818" y="-560.6" font-family="Arial" font-size="14.00" fill="#666666">[BASE TABLE]</text>
<polygon fill="none" stroke="#000000" points="720,-518 720,-547 953,-547 953,-518 720,-518"/>
<text text-anchor="start" x="727" y="-529.8" font-family="Arial" font-size="14.00" fill="#000000">id </text>
<text text-anchor="start" x="750" y="-529.8" font-family="Arial" font-size="14.00" fill="#666666">[varchar(255)]</text>
<polygon fill="none" stroke="#000000" points="720,-489 720,-518 953,-518 953,-489 720,-489"/>
<text text-anchor="start" x="727" y="-500.8" font-family="Arial" font-size="14.00" fill="#000000">event_type </text>
<text text-anchor="start" x="810" y="-500.8" font-family="Arial" font-size="14.00" fill="#666666">[varchar(255)]</text>
<polygon fill="none" stroke="#000000" points="720,-460 720,-489 953,-489 953,-460 720,-460"/>
<text text-anchor="start" x="727" y="-471.8" font-family="Arial" font-size="14.00" fill="#000000">event_data </text>
<text text-anchor="start" x="810" y="-471.8" font-family="Arial" font-size="14.00" fill="#666666">[json]</text>
<polygon fill="none" stroke="#000000" points="720,-431 720,-460 953,-460 953,-431 720,-431"/>
<text text-anchor="start" x="727" y="-442.8" font-family="Arial" font-size="14.00" fill="#000000">aggregate_id </text>
<text text-anchor="start" x="825" y="-442.8" font-family="Arial" font-size="14.00" fill="#666666">[varchar(255)]</text>
<polygon fill="none" stroke="#000000" points="720,-402 720,-431 953,-431 953,-402 720,-402"/>
<text text-anchor="start" x="727" y="-413.8" font-family="Arial" font-size="14.00" fill="#000000">aggregate_type </text>
<text text-anchor="start" x="840" y="-413.8" font-family="Arial" font-size="14.00" fill="#666666">[varchar(255)]</text>
<polygon fill="none" stroke="#000000" points="720,-373 720,-402 953,-402 953,-373 720,-373"/>
<text text-anchor="start" x="727" y="-384.8" font-family="Arial" font-size="14.00" fill="#000000">channel </text>
<text text-anchor="start" x="788" y="-384.8" font-family="Arial" font-size="14.00" fill="#666666">[varchar(255)]</text>
<polygon fill="none" stroke="#000000" points="720,-344 720,-373 953,-373 953,-344 720,-344"/>
<text text-anchor="start" x="727" y="-355.8" font-family="Arial" font-size="14.00" fill="#000000">created_at </text>
<text text-anchor="start" x="810" y="-355.8" font-family="Arial" font-size="14.00" fill="#666666">[datetime]</text>
<polygon fill="none" stroke="#000000" points="720,-315 720,-344 953,-344 953,-315 720,-315"/>
<text text-anchor="start" x="727" y="-326.8" font-family="Arial" font-size="14.00" fill="#000000">updated_at </text>
<text text-anchor="start" x="810" y="-326.8" font-family="Arial" font-size="14.00" fill="#666666">[datetime]</text>
</g>
<!-- schema_migrations -->
<g id="node5" class="node">
<title>schema_migrations</title>
<polygon fill="#efefef" stroke="transparent" points="1057,-460 1057,-494 1298,-494 1298,-460 1057,-460"/>
<polygon fill="none" stroke="#000000" points="1057,-460 1057,-494 1298,-494 1298,-460 1057,-460"/>
<text text-anchor="start" x="1064" y="-473.6" font-family="Arial Bold" font-size="18.00" fill="#000000">schema_migrations</text>
<text text-anchor="start" x="1192" y="-473.6" font-family="Arial" font-size="14.00" fill="#000000"> </text>
<text text-anchor="start" x="1200" y="-473.6" font-family="Arial" font-size="14.00" fill="#666666">[BASE TABLE]</text>
<polygon fill="none" stroke="#000000" points="1057,-431 1057,-460 1298,-460 1298,-431 1057,-431"/>
<text text-anchor="start" x="1064" y="-442.8" font-family="Arial" font-size="14.00" fill="#000000">version </text>
<text text-anchor="start" x="1125" y="-442.8" font-family="Arial" font-size="14.00" fill="#666666">[bigint]</text>
<polygon fill="none" stroke="#000000" points="1057,-402 1057,-431 1298,-431 1298,-402 1057,-402"/>
<text text-anchor="start" x="1064" y="-413.8" font-family="Arial" font-size="14.00" fill="#000000">dirty </text>
<text text-anchor="start" x="1110" y="-413.8" font-family="Arial" font-size="14.00" fill="#666666">[tinyint(1)]</text>
</g>
</g>
</svg>
