<?xml version="1.0" encoding="UTF-8" standalone="no"?>
<!DOCTYPE svg PUBLIC "-//W3C//DTD SVG 1.1//EN"
 "http://www.w3.org/Graphics/SVG/1.1/DTD/svg11.dtd">
<!-- Generated by graphviz version 2.40.1 (0)
 -->
<!-- Title: user_DB Pages: 1 -->
<svg width="702pt" height="360pt"
 viewBox="0.00 0.00 702.00 360.00" xmlns="http://www.w3.org/2000/svg" xmlns:xlink="http://www.w3.org/1999/xlink">
<g id="graph0" class="graph" transform="scale(1 1) rotate(0) translate(4 356)">
<title>user_DB</title>
<polygon fill="#ffffff" stroke="transparent" points="-4,4 -4,-356 698,-356 698,4 -4,4"/>
<!-- schema_migrations -->
<g id="node1" class="node">
<title>schema_migrations</title>
<polygon fill="#efefef" stroke="transparent" points="43.5,-188 43.5,-222 284.5,-222 284.5,-188 43.5,-188"/>
<polygon fill="none" stroke="#000000" points="43.5,-188 43.5,-222 284.5,-222 284.5,-188 43.5,-188"/>
<text text-anchor="start" x="50.5" y="-201.6" font-family="Arial Bold" font-size="18.00" fill="#000000">schema_migrations</text>
<text text-anchor="start" x="178.5" y="-201.6" font-family="Arial" font-size="14.00" fill="#000000"> </text>
<text text-anchor="start" x="186.5" y="-201.6" font-family="Arial" font-size="14.00" fill="#666666">[BASE TABLE]</text>
<polygon fill="none" stroke="#000000" points="43.5,-159 43.5,-188 284.5,-188 284.5,-159 43.5,-159"/>
<text text-anchor="start" x="50.5" y="-170.8" font-family="Arial" font-size="14.00" fill="#000000">version </text>
<text text-anchor="start" x="111.5" y="-170.8" font-family="Arial" font-size="14.00" fill="#666666">[bigint(20)]</text>
<polygon fill="none" stroke="#000000" points="43.5,-130 43.5,-159 284.5,-159 284.5,-130 43.5,-130"/>
<text text-anchor="start" x="50.5" y="-141.8" font-family="Arial" font-size="14.00" fill="#000000">dirty </text>
<text text-anchor="start" x="96.5" y="-141.8" font-family="Arial" font-size="14.00" fill="#666666">[tinyint(1)]</text>
</g>
<!-- users -->
<g id="node2" class="node">
<title>users</title>
<polygon fill="#efefef" stroke="transparent" points="388.5,-275 388.5,-309 651.5,-309 651.5,-275 388.5,-275"/>
<polygon fill="none" stroke="#000000" points="388.5,-275 388.5,-309 651.5,-309 651.5,-275 388.5,-275"/>
<text text-anchor="start" x="451.5" y="-288.6" font-family="Arial Bold" font-size="18.00" fill="#000000">users</text>
<text text-anchor="start" x="489.5" y="-288.6" font-family="Arial" font-size="14.00" fill="#000000"> </text>
<text text-anchor="start" x="497.5" y="-288.6" font-family="Arial" font-size="14.00" fill="#666666">[BASE TABLE]</text>
<polygon fill="none" stroke="#000000" points="388.5,-246 388.5,-275 651.5,-275 651.5,-246 388.5,-246"/>
<text text-anchor="start" x="395.5" y="-257.8" font-family="Arial" font-size="14.00" fill="#000000">id </text>
<text text-anchor="start" x="418.5" y="-257.8" font-family="Arial" font-size="14.00" fill="#666666">[int(11)]</text>
<polygon fill="none" stroke="#000000" points="388.5,-217 388.5,-246 651.5,-246 651.5,-217 388.5,-217"/>
<text text-anchor="start" x="395.5" y="-228.8" font-family="Arial" font-size="14.00" fill="#000000">email </text>
<text text-anchor="start" x="441.5" y="-228.8" font-family="Arial" font-size="14.00" fill="#666666">[varchar(255)]</text>
<polygon fill="none" stroke="#000000" points="388.5,-188 388.5,-217 651.5,-217 651.5,-188 388.5,-188"/>
<text text-anchor="start" x="395.5" y="-199.8" font-family="Arial" font-size="14.00" fill="#000000">encrypted_password </text>
<text text-anchor="start" x="538.5" y="-199.8" font-family="Arial" font-size="14.00" fill="#666666">[varchar(255)]</text>
<polygon fill="none" stroke="#000000" points="388.5,-159 388.5,-188 651.5,-188 651.5,-159 388.5,-159"/>
<text text-anchor="start" x="395.5" y="-170.8" font-family="Arial" font-size="14.00" fill="#000000">name </text>
<text text-anchor="start" x="433.5" y="-170.8" font-family="Arial" font-size="14.00" fill="#666666">[varchar(255)]</text>
<polygon fill="none" stroke="#000000" points="388.5,-130 388.5,-159 651.5,-159 651.5,-130 388.5,-130"/>
<text text-anchor="start" x="395.5" y="-141.8" font-family="Arial" font-size="14.00" fill="#000000">introduction </text>
<text text-anchor="start" x="493.5" y="-141.8" font-family="Arial" font-size="14.00" fill="#666666">[text]</text>
<polygon fill="none" stroke="#000000" points="388.5,-101 388.5,-130 651.5,-130 651.5,-101 388.5,-101"/>
<text text-anchor="start" x="395.5" y="-112.8" font-family="Arial" font-size="14.00" fill="#000000">sex </text>
<text text-anchor="start" x="426.5" y="-112.8" font-family="Arial" font-size="14.00" fill="#666666">[int(11)]</text>
<polygon fill="none" stroke="#000000" points="388.5,-72 388.5,-101 651.5,-101 651.5,-72 388.5,-72"/>
<text text-anchor="start" x="395.5" y="-83.8" font-family="Arial" font-size="14.00" fill="#000000">created_at </text>
<text text-anchor="start" x="478.5" y="-83.8" font-family="Arial" font-size="14.00" fill="#666666">[datetime]</text>
<polygon fill="none" stroke="#000000" points="388.5,-43 388.5,-72 651.5,-72 651.5,-43 388.5,-43"/>
<text text-anchor="start" x="395.5" y="-54.8" font-family="Arial" font-size="14.00" fill="#000000">updated_at </text>
<text text-anchor="start" x="478.5" y="-54.8" font-family="Arial" font-size="14.00" fill="#666666">[datetime]</text>
</g>
</g>
</svg>
