<?xml version="1.0" encoding="UTF-8" standalone="no"?>
<!DOCTYPE svg PUBLIC "-//W3C//DTD SVG 1.1//EN"
 "http://www.w3.org/Graphics/SVG/1.1/DTD/svg11.dtd">
<!-- Generated by graphviz version 2.40.1 (0)
 -->
<!-- Title: users Pages: 1 -->
<svg width="363pt" height="366pt"
 viewBox="0.00 0.00 363.00 366.00" xmlns="http://www.w3.org/2000/svg" xmlns:xlink="http://www.w3.org/1999/xlink">
<g id="graph0" class="graph" transform="scale(1 1) rotate(0) translate(4 362)">
<title>users</title>
<polygon fill="#ffffff" stroke="transparent" points="-4,4 -4,-362 359,-362 359,4 -4,4"/>
<!-- users -->
<g id="node1" class="node">
<title>users</title>
<polygon fill="#efefef" stroke="transparent" points="46.5,-278 46.5,-312 309.5,-312 309.5,-278 46.5,-278"/>
<polygon fill="none" stroke="#000000" points="46.5,-278 46.5,-312 309.5,-312 309.5,-278 46.5,-278"/>
<text text-anchor="start" x="109.5" y="-291.6" font-family="Arial Bold" font-size="18.00" fill="#000000">users</text>
<text text-anchor="start" x="147.5" y="-291.6" font-family="Arial" font-size="14.00" fill="#000000"> </text>
<text text-anchor="start" x="155.5" y="-291.6" font-family="Arial" font-size="14.00" fill="#666666">[BASE TABLE]</text>
<polygon fill="none" stroke="#000000" points="46.5,-249 46.5,-278 309.5,-278 309.5,-249 46.5,-249"/>
<text text-anchor="start" x="53.5" y="-260.8" font-family="Arial" font-size="14.00" fill="#000000">id </text>
<text text-anchor="start" x="76.5" y="-260.8" font-family="Arial" font-size="14.00" fill="#666666">[int]</text>
<polygon fill="none" stroke="#000000" points="46.5,-220 46.5,-249 309.5,-249 309.5,-220 46.5,-220"/>
<text text-anchor="start" x="53.5" y="-231.8" font-family="Arial" font-size="14.00" fill="#000000">email </text>
<text text-anchor="start" x="99.5" y="-231.8" font-family="Arial" font-size="14.00" fill="#666666">[varchar(255)]</text>
<polygon fill="none" stroke="#000000" points="46.5,-191 46.5,-220 309.5,-220 309.5,-191 46.5,-191"/>
<text text-anchor="start" x="53.5" y="-202.8" font-family="Arial" font-size="14.00" fill="#000000">encrypted_password </text>
<text text-anchor="start" x="196.5" y="-202.8" font-family="Arial" font-size="14.00" fill="#666666">[varchar(255)]</text>
<polygon fill="none" stroke="#000000" points="46.5,-162 46.5,-191 309.5,-191 309.5,-162 46.5,-162"/>
<text text-anchor="start" x="53.5" y="-173.8" font-family="Arial" font-size="14.00" fill="#000000">name </text>
<text text-anchor="start" x="91.5" y="-173.8" font-family="Arial" font-size="14.00" fill="#666666">[varchar(255)]</text>
<polygon fill="none" stroke="#000000" points="46.5,-133 46.5,-162 309.5,-162 309.5,-133 46.5,-133"/>
<text text-anchor="start" x="53.5" y="-144.8" font-family="Arial" font-size="14.00" fill="#000000">introduction </text>
<text text-anchor="start" x="151.5" y="-144.8" font-family="Arial" font-size="14.00" fill="#666666">[text]</text>
<polygon fill="none" stroke="#000000" points="46.5,-104 46.5,-133 309.5,-133 309.5,-104 46.5,-104"/>
<text text-anchor="start" x="53.5" y="-115.8" font-family="Arial" font-size="14.00" fill="#000000">sex </text>
<text text-anchor="start" x="84.5" y="-115.8" font-family="Arial" font-size="14.00" fill="#666666">[int]</text>
<polygon fill="none" stroke="#000000" points="46.5,-75 46.5,-104 309.5,-104 309.5,-75 46.5,-75"/>
<text text-anchor="start" x="53.5" y="-86.8" font-family="Arial" font-size="14.00" fill="#000000">created_at </text>
<text text-anchor="start" x="136.5" y="-86.8" font-family="Arial" font-size="14.00" fill="#666666">[datetime]</text>
<polygon fill="none" stroke="#000000" points="46.5,-46 46.5,-75 309.5,-75 309.5,-46 46.5,-46"/>
<text text-anchor="start" x="53.5" y="-57.8" font-family="Arial" font-size="14.00" fill="#000000">updated_at </text>
<text text-anchor="start" x="136.5" y="-57.8" font-family="Arial" font-size="14.00" fill="#666666">[datetime]</text>
<polygon fill="none" stroke="#000000" stroke-width="3" points="44.5,-44.5 44.5,-313.5 310.5,-313.5 310.5,-44.5 44.5,-44.5"/>
</g>
</g>
</svg>
