<?xml version="1.0" encoding="UTF-8" standalone="no"?>
<!DOCTYPE svg PUBLIC "-//W3C//DTD SVG 1.1//EN"
 "http://www.w3.org/Graphics/SVG/1.1/DTD/svg11.dtd">
<!-- Generated by graphviz version 2.40.1 (0)
 -->
<!-- Title: apply_posts Pages: 1 -->
<svg width="610pt" height="754pt"
 viewBox="0.00 0.00 610.00 754.00" xmlns="http://www.w3.org/2000/svg" xmlns:xlink="http://www.w3.org/1999/xlink">
<g id="graph0" class="graph" transform="scale(1 1) rotate(0) translate(4 750)">
<title>apply_posts</title>
<polygon fill="#ffffff" stroke="transparent" points="-4,4 -4,-750 606,-750 606,4 -4,4"/>
<!-- apply_posts -->
<g id="node1" class="node">
<title>apply_posts</title>
<polygon fill="#efefef" stroke="transparent" points="69,-665.5 69,-699.5 265,-699.5 265,-665.5 69,-665.5"/>
<polygon fill="none" stroke="#000000" points="69,-665.5 69,-699.5 265,-699.5 265,-665.5 69,-665.5"/>
<text text-anchor="start" x="76" y="-679.1" font-family="Arial Bold" font-size="18.00" fill="#000000">apply_posts</text>
<text text-anchor="start" x="159" y="-679.1" font-family="Arial" font-size="14.00" fill="#000000"> </text>
<text text-anchor="start" x="167" y="-679.1" font-family="Arial" font-size="14.00" fill="#666666">[BASE TABLE]</text>
<polygon fill="none" stroke="#000000" points="69,-636.5 69,-665.5 265,-665.5 265,-636.5 69,-636.5"/>
<text text-anchor="start" x="76" y="-648.3" font-family="Arial" font-size="14.00" fill="#000000">id </text>
<text text-anchor="start" x="99" y="-648.3" font-family="Arial" font-size="14.00" fill="#666666">[int]</text>
<polygon fill="none" stroke="#000000" points="69,-607.5 69,-636.5 265,-636.5 265,-607.5 69,-607.5"/>
<text text-anchor="start" x="76" y="-619.3" font-family="Arial" font-size="14.00" fill="#000000">post_id </text>
<text text-anchor="start" x="137" y="-619.3" font-family="Arial" font-size="14.00" fill="#666666">[int]</text>
<polygon fill="none" stroke="#000000" points="69,-578.5 69,-607.5 265,-607.5 265,-578.5 69,-578.5"/>
<text text-anchor="start" x="76" y="-590.3" font-family="Arial" font-size="14.00" fill="#000000">user_id </text>
<text text-anchor="start" x="137" y="-590.3" font-family="Arial" font-size="14.00" fill="#666666">[int]</text>
<polygon fill="none" stroke="#000000" points="69,-549.5 69,-578.5 265,-578.5 265,-549.5 69,-549.5"/>
<text text-anchor="start" x="76" y="-561.3" font-family="Arial" font-size="14.00" fill="#000000">created_at </text>
<text text-anchor="start" x="159" y="-561.3" font-family="Arial" font-size="14.00" fill="#666666">[datetime]</text>
<polygon fill="none" stroke="#000000" points="69,-520.5 69,-549.5 265,-549.5 265,-520.5 69,-520.5"/>
<text text-anchor="start" x="76" y="-532.3" font-family="Arial" font-size="14.00" fill="#000000">updated_at </text>
<text text-anchor="start" x="159" y="-532.3" font-family="Arial" font-size="14.00" fill="#666666">[datetime]</text>
<polygon fill="none" stroke="#000000" stroke-width="3" points="67.5,-519.5 67.5,-701.5 266.5,-701.5 266.5,-519.5 67.5,-519.5"/>
</g>
<!-- posts -->
<g id="node2" class="node">
<title>posts</title>
<polygon fill="#efefef" stroke="transparent" points="43,-361.5 43,-395.5 291,-395.5 291,-361.5 43,-361.5"/>
<polygon fill="none" stroke="#000000" points="43,-361.5 43,-395.5 291,-395.5 291,-361.5 43,-361.5"/>
<text text-anchor="start" x="98.5" y="-375.1" font-family="Arial Bold" font-size="18.00" fill="#000000">posts</text>
<text text-anchor="start" x="136.5" y="-375.1" font-family="Arial" font-size="14.00" fill="#000000"> </text>
<text text-anchor="start" x="144.5" y="-375.1" font-family="Arial" font-size="14.00" fill="#666666">[BASE TABLE]</text>
<polygon fill="none" stroke="#000000" points="43,-332.5 43,-361.5 291,-361.5 291,-332.5 43,-332.5"/>
<text text-anchor="start" x="50" y="-344.3" font-family="Arial" font-size="14.00" fill="#000000">id </text>
<text text-anchor="start" x="73" y="-344.3" font-family="Arial" font-size="14.00" fill="#666666">[int]</text>
<polygon fill="none" stroke="#000000" points="43,-303.5 43,-332.5 291,-332.5 291,-303.5 43,-303.5"/>
<text text-anchor="start" x="50" y="-315.3" font-family="Arial" font-size="14.00" fill="#000000">title </text>
<text text-anchor="start" x="96" y="-315.3" font-family="Arial" font-size="14.00" fill="#666666">[varchar(255)]</text>
<polygon fill="none" stroke="#000000" points="43,-274.5 43,-303.5 291,-303.5 291,-274.5 43,-274.5"/>
<text text-anchor="start" x="50" y="-286.3" font-family="Arial" font-size="14.00" fill="#000000">content </text>
<text text-anchor="start" x="111" y="-286.3" font-family="Arial" font-size="14.00" fill="#666666">[varchar(5000)]</text>
<polygon fill="none" stroke="#000000" points="43,-245.5 43,-274.5 291,-274.5 291,-245.5 43,-245.5"/>
<text text-anchor="start" x="50" y="-257.3" font-family="Arial" font-size="14.00" fill="#000000">fishing_spot_type_id </text>
<text text-anchor="start" x="208" y="-257.3" font-family="Arial" font-size="14.00" fill="#666666">[int]</text>
<polygon fill="none" stroke="#000000" points="43,-216.5 43,-245.5 291,-245.5 291,-216.5 43,-216.5"/>
<text text-anchor="start" x="50" y="-228.3" font-family="Arial" font-size="14.00" fill="#000000">prefecture_id </text>
<text text-anchor="start" x="156" y="-228.3" font-family="Arial" font-size="14.00" fill="#666666">[int]</text>
<polygon fill="none" stroke="#000000" points="43,-187.5 43,-216.5 291,-216.5 291,-187.5 43,-187.5"/>
<text text-anchor="start" x="50" y="-199.3" font-family="Arial" font-size="14.00" fill="#000000">meeting_place_id </text>
<text text-anchor="start" x="178" y="-199.3" font-family="Arial" font-size="14.00" fill="#666666">[varchar(255)]</text>
<polygon fill="none" stroke="#000000" points="43,-158.5 43,-187.5 291,-187.5 291,-158.5 43,-158.5"/>
<text text-anchor="start" x="50" y="-170.3" font-family="Arial" font-size="14.00" fill="#000000">meeting_at </text>
<text text-anchor="start" x="133" y="-170.3" font-family="Arial" font-size="14.00" fill="#666666">[datetime]</text>
<polygon fill="none" stroke="#000000" points="43,-129.5 43,-158.5 291,-158.5 291,-129.5 43,-129.5"/>
<text text-anchor="start" x="50" y="-141.3" font-family="Arial" font-size="14.00" fill="#000000">max_apply </text>
<text text-anchor="start" x="126" y="-141.3" font-family="Arial" font-size="14.00" fill="#666666">[int]</text>
<polygon fill="none" stroke="#000000" points="43,-100.5 43,-129.5 291,-129.5 291,-100.5 43,-100.5"/>
<text text-anchor="start" x="50" y="-112.3" font-family="Arial" font-size="14.00" fill="#000000">user_id </text>
<text text-anchor="start" x="111" y="-112.3" font-family="Arial" font-size="14.00" fill="#666666">[int]</text>
<polygon fill="none" stroke="#000000" points="43,-71.5 43,-100.5 291,-100.5 291,-71.5 43,-71.5"/>
<text text-anchor="start" x="50" y="-83.3" font-family="Arial" font-size="14.00" fill="#000000">created_at </text>
<text text-anchor="start" x="133" y="-83.3" font-family="Arial" font-size="14.00" fill="#666666">[datetime]</text>
<polygon fill="none" stroke="#000000" points="43,-42.5 43,-71.5 291,-71.5 291,-42.5 43,-42.5"/>
<text text-anchor="start" x="50" y="-54.3" font-family="Arial" font-size="14.00" fill="#000000">updated_at </text>
<text text-anchor="start" x="133" y="-54.3" font-family="Arial" font-size="14.00" fill="#666666">[datetime]</text>
</g>
<!-- apply_posts&#45;&gt;posts -->
<g id="edge1" class="edge">
<title>apply_posts:post_id&#45;&gt;posts:id</title>
<path fill="none" stroke="#000000" d="M274.7448,-620.1226C328.966,-593.2443 349.0267,-347.5 291,-347.5"/>
<polygon fill="#000000" stroke="#000000" points="274.7151,-620.1298 263.9334,-618.1282 269.8575,-621.3149 265,-622.5 265,-622.5 265,-622.5 269.8575,-621.3149 266.0666,-626.8718 274.7151,-620.1298 274.7151,-620.1298"/>
<text text-anchor="start" x="272.5" y="-632" font-family="Arial" font-size="10.00" fill="#000000">FOREIGN KEY (post_id) REFERENCES posts (id)</text>
</g>
</g>
</svg>
