<?xml version="1.0" encoding="UTF-8" standalone="no"?>
<!DOCTYPE svg PUBLIC "-//W3C//DTD SVG 1.1//EN"
 "http://www.w3.org/Graphics/SVG/1.1/DTD/svg11.dtd">
<!-- Generated by graphviz version 2.40.1 (0)
 -->
<!-- Title: posts_fish_types Pages: 1 -->
<svg width="629pt" height="754pt"
 viewBox="0.00 0.00 629.00 754.00" xmlns="http://www.w3.org/2000/svg" xmlns:xlink="http://www.w3.org/1999/xlink">
<g id="graph0" class="graph" transform="scale(1 1) rotate(0) translate(4 750)">
<title>posts_fish_types</title>
<polygon fill="#ffffff" stroke="transparent" points="-4,4 -4,-750 625,-750 625,4 -4,4"/>
<!-- posts_fish_types -->
<g id="node1" class="node">
<title>posts_fish_types</title>
<polygon fill="#efefef" stroke="transparent" points="50,-665.5 50,-699.5 284,-699.5 284,-665.5 50,-665.5"/>
<polygon fill="none" stroke="#000000" points="50,-665.5 50,-699.5 284,-699.5 284,-665.5 50,-665.5"/>
<text text-anchor="start" x="57" y="-679.1" font-family="Arial Bold" font-size="18.00" fill="#000000">posts_fish_types</text>
<text text-anchor="start" x="178" y="-679.1" font-family="Arial" font-size="14.00" fill="#000000"> </text>
<text text-anchor="start" x="186" y="-679.1" font-family="Arial" font-size="14.00" fill="#666666">[BASE TABLE]</text>
<polygon fill="none" stroke="#000000" points="50,-636.5 50,-665.5 284,-665.5 284,-636.5 50,-636.5"/>
<text text-anchor="start" x="57" y="-648.3" font-family="Arial" font-size="14.00" fill="#000000">id </text>
<text text-anchor="start" x="80" y="-648.3" font-family="Arial" font-size="14.00" fill="#666666">[int]</text>
<polygon fill="none" stroke="#000000" points="50,-607.5 50,-636.5 284,-636.5 284,-607.5 50,-607.5"/>
<text text-anchor="start" x="57" y="-619.3" font-family="Arial" font-size="14.00" fill="#000000">post_id </text>
<text text-anchor="start" x="118" y="-619.3" font-family="Arial" font-size="14.00" fill="#666666">[int]</text>
<polygon fill="none" stroke="#000000" points="50,-578.5 50,-607.5 284,-607.5 284,-578.5 50,-578.5"/>
<text text-anchor="start" x="57" y="-590.3" font-family="Arial" font-size="14.00" fill="#000000">fish_type_id </text>
<text text-anchor="start" x="155" y="-590.3" font-family="Arial" font-size="14.00" fill="#666666">[int]</text>
<polygon fill="none" stroke="#000000" points="50,-549.5 50,-578.5 284,-578.5 284,-549.5 50,-549.5"/>
<text text-anchor="start" x="57" y="-561.3" font-family="Arial" font-size="14.00" fill="#000000">created_at </text>
<text text-anchor="start" x="140" y="-561.3" font-family="Arial" font-size="14.00" fill="#666666">[datetime]</text>
<polygon fill="none" stroke="#000000" points="50,-520.5 50,-549.5 284,-549.5 284,-520.5 50,-520.5"/>
<text text-anchor="start" x="57" y="-532.3" font-family="Arial" font-size="14.00" fill="#000000">updated_at </text>
<text text-anchor="start" x="140" y="-532.3" font-family="Arial" font-size="14.00" fill="#666666">[datetime]</text>
<polygon fill="none" stroke="#000000" stroke-width="3" points="48.5,-519.5 48.5,-701.5 285.5,-701.5 285.5,-519.5 48.5,-519.5"/>
</g>
<!-- posts -->
<g id="node2" class="node">
<title>posts</title>
<polygon fill="#efefef" stroke="transparent" points="43,-361.5 43,-395.5 291,-395.5 291,-361.5 43,-361.5"/>
<polygon fill="none" stroke="#000000" points="43,-361.5 43,-395.5 291,-395.5 291,-361.5 43,-361.5"/>
<text text-anchor="start" x="98.5" y="-375.1" font-family="Arial Bold" font-size="18.00" fill="#000000">posts</text>
<text text-anchor="start" x="136.5" y="-375.1" font-family="Arial" font-size="14.00" fill="#000000"> </text>
<text text-anchor="start" x="144.5" y="-375.1" font-family="Arial" font-size="14.00" fill="#666666">[BASE TABLE]</text>
<polygon fill="none" stroke="#000000" points="43,-332.5 43,-361.5 291,-361.5 291,-332.5 43,-332.5"/>
<text text-anchor="start" x="50" y="-344.3" font-family="Arial" font-size="14.00" fill="#000000">id </text>
<text text-anchor="start" x="73" y="-344.3" font-family="Arial" font-size="14.00" fill="#666666">[int]</text>
<polygon fill="none" stroke="#000000" points="43,-303.5 43,-332.5 291,-332.5 291,-303.5 43,-303.5"/>
<text text-anchor="start" x="50" y="-315.3" font-family="Arial" font-size="14.00" fill="#000000">title </text>
<text text-anchor="start" x="96" y="-315.3" font-family="Arial" font-size="14.00" fill="#666666">[varchar(255)]</text>
<polygon fill="none" stroke="#000000" points="43,-274.5 43,-303.5 291,-303.5 291,-274.5 43,-274.5"/>
<text text-anchor="start" x="50" y="-286.3" font-family="Arial" font-size="14.00" fill="#000000">content </text>
<text text-anchor="start" x="111" y="-286.3" font-family="Arial" font-size="14.00" fill="#666666">[varchar(5000)]</text>
<polygon fill="none" stroke="#000000" points="43,-245.5 43,-274.5 291,-274.5 291,-245.5 43,-245.5"/>
<text text-anchor="start" x="50" y="-257.3" font-family="Arial" font-size="14.00" fill="#000000">fishing_spot_type_id </text>
<text text-anchor="start" x="208" y="-257.3" font-family="Arial" font-size="14.00" fill="#666666">[int]</text>
<polygon fill="none" stroke="#000000" points="43,-216.5 43,-245.5 291,-245.5 291,-216.5 43,-216.5"/>
<text text-anchor="start" x="50" y="-228.3" font-family="Arial" font-size="14.00" fill="#000000">prefecture_id </text>
<text text-anchor="start" x="156" y="-228.3" font-family="Arial" font-size="14.00" fill="#666666">[int]</text>
<polygon fill="none" stroke="#000000" points="43,-187.5 43,-216.5 291,-216.5 291,-187.5 43,-187.5"/>
<text text-anchor="start" x="50" y="-199.3" font-family="Arial" font-size="14.00" fill="#000000">meeting_place_id </text>
<text text-anchor="start" x="178" y="-199.3" font-family="Arial" font-size="14.00" fill="#666666">[varchar(255)]</text>
<polygon fill="none" stroke="#000000" points="43,-158.5 43,-187.5 291,-187.5 291,-158.5 43,-158.5"/>
<text text-anchor="start" x="50" y="-170.3" font-family="Arial" font-size="14.00" fill="#000000">meeting_at </text>
<text text-anchor="start" x="133" y="-170.3" font-family="Arial" font-size="14.00" fill="#666666">[datetime]</text>
<polygon fill="none" stroke="#000000" points="43,-129.5 43,-158.5 291,-158.5 291,-129.5 43,-129.5"/>
<text text-anchor="start" x="50" y="-141.3" font-family="Arial" font-size="14.00" fill="#000000">max_apply </text>
<text text-anchor="start" x="126" y="-141.3" font-family="Arial" font-size="14.00" fill="#666666">[int]</text>
<polygon fill="none" stroke="#000000" points="43,-100.5 43,-129.5 291,-129.5 291,-100.5 43,-100.5"/>
<text text-anchor="start" x="50" y="-112.3" font-family="Arial" font-size="14.00" fill="#000000">user_id </text>
<text text-anchor="start" x="111" y="-112.3" font-family="Arial" font-size="14.00" fill="#666666">[int]</text>
<polygon fill="none" stroke="#000000" points="43,-71.5 43,-100.5 291,-100.5 291,-71.5 43,-71.5"/>
<text text-anchor="start" x="50" y="-83.3" font-family="Arial" font-size="14.00" fill="#000000">created_at </text>
<text text-anchor="start" x="133" y="-83.3" font-family="Arial" font-size="14.00" fill="#666666">[datetime]</text>
<polygon fill="none" stroke="#000000" points="43,-42.5 43,-71.5 291,-71.5 291,-42.5 43,-42.5"/>
<text text-anchor="start" x="50" y="-54.3" font-family="Arial" font-size="14.00" fill="#000000">updated_at </text>
<text text-anchor="start" x="133" y="-54.3" font-family="Arial" font-size="14.00" fill="#666666">[datetime]</text>
</g>
<!-- posts_fish_types&#45;&gt;posts -->
<g id="edge1" class="edge">
<title>posts_fish_types:post_id&#45;&gt;posts:id</title>
<path fill="none" stroke="#000000" d="M293.864,-619.9532C345.7053,-592.2299 348.6684,-347.5 291,-347.5"/>
<polygon fill="#000000" stroke="#000000" points="293.6825,-620 282.875,-618.1429 288.8412,-621.25 284,-622.5 284,-622.5 284,-622.5 288.8412,-621.25 285.125,-626.8571 293.6825,-620 293.6825,-620"/>
<text text-anchor="start" x="291.5" y="-632" font-family="Arial" font-size="10.00" fill="#000000">FOREIGN KEY (post_id) REFERENCES posts (id)</text>
</g>
</g>
</svg>
