<?xml version="1.0" encoding="UTF-8" standalone="no"?>
<!DOCTYPE svg PUBLIC "-//W3C//DTD SVG 1.1//EN"
 "http://www.w3.org/Graphics/SVG/1.1/DTD/svg11.dtd">
<!-- Generated by graphviz version 2.40.1 (0)
 -->
<!-- Title: posts Pages: 1 -->
<svg width="786pt" height="754pt"
 viewBox="0.00 0.00 786.00 754.00" xmlns="http://www.w3.org/2000/svg" xmlns:xlink="http://www.w3.org/1999/xlink">
<g id="graph0" class="graph" transform="scale(1 1) rotate(0) translate(4 750)">
<title>posts</title>
<polygon fill="#ffffff" stroke="transparent" points="-4,4 -4,-750 782,-750 782,4 -4,4"/>
<!-- posts -->
<g id="node1" class="node">
<title>posts</title>
<polygon fill="#efefef" stroke="transparent" points="274,-364.5 274,-398.5 522,-398.5 522,-364.5 274,-364.5"/>
<polygon fill="none" stroke="#000000" points="274,-364.5 274,-398.5 522,-398.5 522,-364.5 274,-364.5"/>
<text text-anchor="start" x="329.5" y="-378.1" font-family="Arial Bold" font-size="18.00" fill="#000000">posts</text>
<text text-anchor="start" x="367.5" y="-378.1" font-family="Arial" font-size="14.00" fill="#000000"> </text>
<text text-anchor="start" x="375.5" y="-378.1" font-family="Arial" font-size="14.00" fill="#666666">[BASE TABLE]</text>
<polygon fill="none" stroke="#000000" points="274,-335.5 274,-364.5 522,-364.5 522,-335.5 274,-335.5"/>
<text text-anchor="start" x="281" y="-347.3" font-family="Arial" font-size="14.00" fill="#000000">id </text>
<text text-anchor="start" x="304" y="-347.3" font-family="Arial" font-size="14.00" fill="#666666">[int]</text>
<polygon fill="none" stroke="#000000" points="274,-306.5 274,-335.5 522,-335.5 522,-306.5 274,-306.5"/>
<text text-anchor="start" x="281" y="-318.3" font-family="Arial" font-size="14.00" fill="#000000">title </text>
<text text-anchor="start" x="327" y="-318.3" font-family="Arial" font-size="14.00" fill="#666666">[varchar(255)]</text>
<polygon fill="none" stroke="#000000" points="274,-277.5 274,-306.5 522,-306.5 522,-277.5 274,-277.5"/>
<text text-anchor="start" x="281" y="-289.3" font-family="Arial" font-size="14.00" fill="#000000">content </text>
<text text-anchor="start" x="342" y="-289.3" font-family="Arial" font-size="14.00" fill="#666666">[varchar(5000)]</text>
<polygon fill="none" stroke="#000000" points="274,-248.5 274,-277.5 522,-277.5 522,-248.5 274,-248.5"/>
<text text-anchor="start" x="281" y="-260.3" font-family="Arial" font-size="14.00" fill="#000000">fishing_spot_type_id </text>
<text text-anchor="start" x="439" y="-260.3" font-family="Arial" font-size="14.00" fill="#666666">[int]</text>
<polygon fill="none" stroke="#000000" points="274,-219.5 274,-248.5 522,-248.5 522,-219.5 274,-219.5"/>
<text text-anchor="start" x="281" y="-231.3" font-family="Arial" font-size="14.00" fill="#000000">prefecture_id </text>
<text text-anchor="start" x="387" y="-231.3" font-family="Arial" font-size="14.00" fill="#666666">[int]</text>
<polygon fill="none" stroke="#000000" points="274,-190.5 274,-219.5 522,-219.5 522,-190.5 274,-190.5"/>
<text text-anchor="start" x="281" y="-202.3" font-family="Arial" font-size="14.00" fill="#000000">meeting_place_id </text>
<text text-anchor="start" x="409" y="-202.3" font-family="Arial" font-size="14.00" fill="#666666">[varchar(255)]</text>
<polygon fill="none" stroke="#000000" points="274,-161.5 274,-190.5 522,-190.5 522,-161.5 274,-161.5"/>
<text text-anchor="start" x="281" y="-173.3" font-family="Arial" font-size="14.00" fill="#000000">meeting_at </text>
<text text-anchor="start" x="364" y="-173.3" font-family="Arial" font-size="14.00" fill="#666666">[datetime]</text>
<polygon fill="none" stroke="#000000" points="274,-132.5 274,-161.5 522,-161.5 522,-132.5 274,-132.5"/>
<text text-anchor="start" x="281" y="-144.3" font-family="Arial" font-size="14.00" fill="#000000">max_apply </text>
<text text-anchor="start" x="357" y="-144.3" font-family="Arial" font-size="14.00" fill="#666666">[int]</text>
<polygon fill="none" stroke="#000000" points="274,-103.5 274,-132.5 522,-132.5 522,-103.5 274,-103.5"/>
<text text-anchor="start" x="281" y="-115.3" font-family="Arial" font-size="14.00" fill="#000000">user_id </text>
<text text-anchor="start" x="342" y="-115.3" font-family="Arial" font-size="14.00" fill="#666666">[int]</text>
<polygon fill="none" stroke="#000000" points="274,-74.5 274,-103.5 522,-103.5 522,-74.5 274,-74.5"/>
<text text-anchor="start" x="281" y="-86.3" font-family="Arial" font-size="14.00" fill="#000000">created_at </text>
<text text-anchor="start" x="364" y="-86.3" font-family="Arial" font-size="14.00" fill="#666666">[datetime]</text>
<polygon fill="none" stroke="#000000" points="274,-45.5 274,-74.5 522,-74.5 522,-45.5 274,-45.5"/>
<text text-anchor="start" x="281" y="-57.3" font-family="Arial" font-size="14.00" fill="#000000">updated_at </text>
<text text-anchor="start" x="364" y="-57.3" font-family="Arial" font-size="14.00" fill="#666666">[datetime]</text>
<polygon fill="none" stroke="#000000" stroke-width="3" points="272.5,-44.5 272.5,-400.5 523.5,-400.5 523.5,-44.5 272.5,-44.5"/>
</g>
<!-- apply_posts -->
<g id="node2" class="node">
<title>apply_posts</title>
<polygon fill="#efefef" stroke="transparent" points="141,-668.5 141,-702.5 337,-702.5 337,-668.5 141,-668.5"/>
<polygon fill="none" stroke="#000000" points="141,-668.5 141,-702.5 337,-702.5 337,-668.5 141,-668.5"/>
<text text-anchor="start" x="148" y="-682.1" font-family="Arial Bold" font-size="18.00" fill="#000000">apply_posts</text>
<text text-anchor="start" x="231" y="-682.1" font-family="Arial" font-size="14.00" fill="#000000"> </text>
<text text-anchor="start" x="239" y="-682.1" font-family="Arial" font-size="14.00" fill="#666666">[BASE TABLE]</text>
<polygon fill="none" stroke="#000000" points="141,-639.5 141,-668.5 337,-668.5 337,-639.5 141,-639.5"/>
<text text-anchor="start" x="148" y="-651.3" font-family="Arial" font-size="14.00" fill="#000000">id </text>
<text text-anchor="start" x="171" y="-651.3" font-family="Arial" font-size="14.00" fill="#666666">[int]</text>
<polygon fill="none" stroke="#000000" points="141,-610.5 141,-639.5 337,-639.5 337,-610.5 141,-610.5"/>
<text text-anchor="start" x="148" y="-622.3" font-family="Arial" font-size="14.00" fill="#000000">post_id </text>
<text text-anchor="start" x="209" y="-622.3" font-family="Arial" font-size="14.00" fill="#666666">[int]</text>
<polygon fill="none" stroke="#000000" points="141,-581.5 141,-610.5 337,-610.5 337,-581.5 141,-581.5"/>
<text text-anchor="start" x="148" y="-593.3" font-family="Arial" font-size="14.00" fill="#000000">user_id </text>
<text text-anchor="start" x="209" y="-593.3" font-family="Arial" font-size="14.00" fill="#666666">[int]</text>
<polygon fill="none" stroke="#000000" points="141,-552.5 141,-581.5 337,-581.5 337,-552.5 141,-552.5"/>
<text text-anchor="start" x="148" y="-564.3" font-family="Arial" font-size="14.00" fill="#000000">created_at </text>
<text text-anchor="start" x="231" y="-564.3" font-family="Arial" font-size="14.00" fill="#666666">[datetime]</text>
<polygon fill="none" stroke="#000000" points="141,-523.5 141,-552.5 337,-552.5 337,-523.5 141,-523.5"/>
<text text-anchor="start" x="148" y="-535.3" font-family="Arial" font-size="14.00" fill="#000000">updated_at </text>
<text text-anchor="start" x="231" y="-535.3" font-family="Arial" font-size="14.00" fill="#666666">[datetime]</text>
</g>
<!-- apply_posts&#45;&gt;posts -->
<g id="edge1" class="edge">
<title>apply_posts:post_id&#45;&gt;posts:id</title>
<path fill="none" stroke="#000000" d="M347.0042,-624.6661C397.5979,-615.5304 367.4091,-533.4003 337,-481 320.8133,-453.1075 290.1867,-472.8925 274,-445 252.9191,-408.6738 232,-350.5 274,-350.5"/>
<polygon fill="#000000" stroke="#000000" points="346.9654,-624.6692 336.6262,-621.0156 341.9827,-625.0846 337,-625.5 337,-625.5 337,-625.5 341.9827,-625.0846 337.3738,-629.9844 346.9654,-624.6692 346.9654,-624.6692"/>
<text text-anchor="start" x="7.5" y="-635" font-family="Arial" font-size="10.00" fill="#000000">FOREIGN KEY (post_id) REFERENCES posts (id)</text>
</g>
<!-- posts_fish_types -->
<g id="node3" class="node">
<title>posts_fish_types</title>
<polygon fill="#efefef" stroke="transparent" points="441,-668.5 441,-702.5 675,-702.5 675,-668.5 441,-668.5"/>
<polygon fill="none" stroke="#000000" points="441,-668.5 441,-702.5 675,-702.5 675,-668.5 441,-668.5"/>
<text text-anchor="start" x="448" y="-682.1" font-family="Arial Bold" font-size="18.00" fill="#000000">posts_fish_types</text>
<text text-anchor="start" x="569" y="-682.1" font-family="Arial" font-size="14.00" fill="#000000"> </text>
<text text-anchor="start" x="577" y="-682.1" font-family="Arial" font-size="14.00" fill="#666666">[BASE TABLE]</text>
<polygon fill="none" stroke="#000000" points="441,-639.5 441,-668.5 675,-668.5 675,-639.5 441,-639.5"/>
<text text-anchor="start" x="448" y="-651.3" font-family="Arial" font-size="14.00" fill="#000000">id </text>
<text text-anchor="start" x="471" y="-651.3" font-family="Arial" font-size="14.00" fill="#666666">[int]</text>
<polygon fill="none" stroke="#000000" points="441,-610.5 441,-639.5 675,-639.5 675,-610.5 441,-610.5"/>
<text text-anchor="start" x="448" y="-622.3" font-family="Arial" font-size="14.00" fill="#000000">post_id </text>
<text text-anchor="start" x="509" y="-622.3" font-family="Arial" font-size="14.00" fill="#666666">[int]</text>
<polygon fill="none" stroke="#000000" points="441,-581.5 441,-610.5 675,-610.5 675,-581.5 441,-581.5"/>
<text text-anchor="start" x="448" y="-593.3" font-family="Arial" font-size="14.00" fill="#000000">fish_type_id </text>
<text text-anchor="start" x="546" y="-593.3" font-family="Arial" font-size="14.00" fill="#666666">[int]</text>
<polygon fill="none" stroke="#000000" points="441,-552.5 441,-581.5 675,-581.5 675,-552.5 441,-552.5"/>
<text text-anchor="start" x="448" y="-564.3" font-family="Arial" font-size="14.00" fill="#000000">created_at </text>
<text text-anchor="start" x="531" y="-564.3" font-family="Arial" font-size="14.00" fill="#666666">[datetime]</text>
<polygon fill="none" stroke="#000000" points="441,-523.5 441,-552.5 675,-552.5 675,-523.5 441,-523.5"/>
<text text-anchor="start" x="448" y="-535.3" font-family="Arial" font-size="14.00" fill="#000000">updated_at </text>
<text text-anchor="start" x="531" y="-535.3" font-family="Arial" font-size="14.00" fill="#666666">[datetime]</text>
</g>
<!-- posts_fish_types&#45;&gt;posts -->
<g id="edge2" class="edge">
<title>posts_fish_types:post_id&#45;&gt;posts:id</title>
<path fill="none" stroke="#000000" d="M430.9707,-624.6507C380.1071,-615.3491 407.9866,-531.7997 441,-481 462.4671,-447.9672 500.5329,-478.0328 522,-445 544.8864,-409.7833 564,-350.5 522,-350.5"/>
<polygon fill="#000000" stroke="#000000" points="431.0357,-624.6561 440.6202,-629.984 436.0178,-625.0781 441,-625.5 441,-625.5 441,-625.5 436.0178,-625.0781 441.3798,-621.016 431.0357,-624.6561 431.0357,-624.6561"/>
<text text-anchor="start" x="448.5" y="-635" font-family="Arial" font-size="10.00" fill="#000000">FOREIGN KEY (post_id) REFERENCES posts (id)</text>
</g>
</g>
</svg>
