<?xml version="1.0" encoding="UTF-8" standalone="no"?>
<!DOCTYPE svg PUBLIC "-//W3C//DTD SVG 1.1//EN"
 "http://www.w3.org/Graphics/SVG/1.1/DTD/svg11.dtd">
<!-- Generated by graphviz version 2.40.1 (0)
 -->
<!-- Title: saga_instance Pages: 1 -->
<svg width="326pt" height="308pt"
 viewBox="0.00 0.00 326.00 308.00" xmlns="http://www.w3.org/2000/svg" xmlns:xlink="http://www.w3.org/1999/xlink">
<g id="graph0" class="graph" transform="scale(1 1) rotate(0) translate(4 304)">
<title>saga_instance</title>
<polygon fill="#ffffff" stroke="transparent" points="-4,4 -4,-304 322,-304 322,4 -4,4"/>
<!-- saga_instance -->
<g id="node1" class="node">
<title>saga_instance</title>
<polygon fill="#efefef" stroke="transparent" points="46,-220 46,-254 272,-254 272,-220 46,-220"/>
<polygon fill="none" stroke="#000000" points="46,-220 46,-254 272,-254 272,-220 46,-220"/>
<text text-anchor="start" x="60.5" y="-233.6" font-family="Arial Bold" font-size="18.00" fill="#000000">saga_instance</text>
<text text-anchor="start" x="158.5" y="-233.6" font-family="Arial" font-size="14.00" fill="#000000"> </text>
<text text-anchor="start" x="166.5" y="-233.6" font-family="Arial" font-size="14.00" fill="#666666">[BASE TABLE]</text>
<polygon fill="none" stroke="#000000" points="46,-191 46,-220 272,-220 272,-191 46,-191"/>
<text text-anchor="start" x="53" y="-202.8" font-family="Arial" font-size="14.00" fill="#000000">id </text>
<text text-anchor="start" x="76" y="-202.8" font-family="Arial" font-size="14.00" fill="#666666">[varchar(255)]</text>
<polygon fill="none" stroke="#000000" points="46,-162 46,-191 272,-191 272,-162 46,-162"/>
<text text-anchor="start" x="53" y="-173.8" font-family="Arial" font-size="14.00" fill="#000000">saga_type </text>
<text text-anchor="start" x="129" y="-173.8" font-family="Arial" font-size="14.00" fill="#666666">[varchar(255)]</text>
<polygon fill="none" stroke="#000000" points="46,-133 46,-162 272,-162 272,-133 46,-133"/>
<text text-anchor="start" x="53" y="-144.8" font-family="Arial" font-size="14.00" fill="#000000">saga_data </text>
<text text-anchor="start" x="129" y="-144.8" font-family="Arial" font-size="14.00" fill="#666666">[json]</text>
<polygon fill="none" stroke="#000000" points="46,-104 46,-133 272,-133 272,-104 46,-104"/>
<text text-anchor="start" x="53" y="-115.8" font-family="Arial" font-size="14.00" fill="#000000">current_state </text>
<text text-anchor="start" x="159" y="-115.8" font-family="Arial" font-size="14.00" fill="#666666">[varchar(255)]</text>
<polygon fill="none" stroke="#000000" points="46,-75 46,-104 272,-104 272,-75 46,-75"/>
<text text-anchor="start" x="53" y="-86.8" font-family="Arial" font-size="14.00" fill="#000000">created_at </text>
<text text-anchor="start" x="136" y="-86.8" font-family="Arial" font-size="14.00" fill="#666666">[datetime]</text>
<polygon fill="none" stroke="#000000" points="46,-46 46,-75 272,-75 272,-46 46,-46"/>
<text text-anchor="start" x="53" y="-57.8" font-family="Arial" font-size="14.00" fill="#000000">updated_at </text>
<text text-anchor="start" x="136" y="-57.8" font-family="Arial" font-size="14.00" fill="#666666">[datetime]</text>
<polygon fill="none" stroke="#000000" stroke-width="3" points="44.5,-44.5 44.5,-255.5 273.5,-255.5 273.5,-44.5 44.5,-44.5"/>
</g>
</g>
</svg>
