<?xml version="1.0" encoding="UTF-8" standalone="no"?>
<!DOCTYPE svg PUBLIC "-//W3C//DTD SVG 1.1//EN"
 "http://www.w3.org/Graphics/SVG/1.1/DTD/svg11.dtd">
<!-- Generated by graphviz version 2.40.1 (0)
 -->
<!-- Title: post_DB Pages: 1 -->
<svg width="1740pt" height="835pt"
 viewBox="0.00 0.00 1739.50 835.00" xmlns="http://www.w3.org/2000/svg" xmlns:xlink="http://www.w3.org/1999/xlink">
<g id="graph0" class="graph" transform="scale(1 1) rotate(0) translate(4 831)">
<title>post_DB</title>
<polygon fill="#ffffff" stroke="transparent" points="-4,4 -4,-831 1735.5,-831 1735.5,4 -4,4"/>
<!-- apply_posts -->
<g id="node1" class="node">
<title>apply_posts</title>
<polygon fill="#efefef" stroke="transparent" points="141,-706 141,-740 337,-740 337,-706 141,-706"/>
<polygon fill="none" stroke="#000000" points="141,-706 141,-740 337,-740 337,-706 141,-706"/>
<text text-anchor="start" x="148" y="-719.6" font-family="Arial Bold" font-size="18.00" fill="#000000">apply_posts</text>
<text text-anchor="start" x="231" y="-719.6" font-family="Arial" font-size="14.00" fill="#000000"> </text>
<text text-anchor="start" x="239" y="-719.6" font-family="Arial" font-size="14.00" fill="#666666">[BASE TABLE]</text>
<polygon fill="none" stroke="#000000" points="141,-677 141,-706 337,-706 337,-677 141,-677"/>
<text text-anchor="start" x="148" y="-688.8" font-family="Arial" font-size="14.00" fill="#000000">id </text>
<text text-anchor="start" x="171" y="-688.8" font-family="Arial" font-size="14.00" fill="#666666">[int]</text>
<polygon fill="none" stroke="#000000" points="141,-648 141,-677 337,-677 337,-648 141,-648"/>
<text text-anchor="start" x="148" y="-659.8" font-family="Arial" font-size="14.00" fill="#000000">post_id </text>
<text text-anchor="start" x="209" y="-659.8" font-family="Arial" font-size="14.00" fill="#666666">[int]</text>
<polygon fill="none" stroke="#000000" points="141,-619 141,-648 337,-648 337,-619 141,-619"/>
<text text-anchor="start" x="148" y="-630.8" font-family="Arial" font-size="14.00" fill="#000000">user_id </text>
<text text-anchor="start" x="209" y="-630.8" font-family="Arial" font-size="14.00" fill="#666666">[int]</text>
<polygon fill="none" stroke="#000000" points="141,-590 141,-619 337,-619 337,-590 141,-590"/>
<text text-anchor="start" x="148" y="-601.8" font-family="Arial" font-size="14.00" fill="#000000">created_at </text>
<text text-anchor="start" x="231" y="-601.8" font-family="Arial" font-size="14.00" fill="#666666">[datetime]</text>
<polygon fill="none" stroke="#000000" points="141,-561 141,-590 337,-590 337,-561 141,-561"/>
<text text-anchor="start" x="148" y="-572.8" font-family="Arial" font-size="14.00" fill="#000000">updated_at </text>
<text text-anchor="start" x="231" y="-572.8" font-family="Arial" font-size="14.00" fill="#666666">[datetime]</text>
</g>
<!-- posts -->
<g id="node3" class="node">
<title>posts</title>
<polygon fill="#efefef" stroke="transparent" points="274,-361.5 274,-395.5 522,-395.5 522,-361.5 274,-361.5"/>
<polygon fill="none" stroke="#000000" points="274,-361.5 274,-395.5 522,-395.5 522,-361.5 274,-361.5"/>
<text text-anchor="start" x="329.5" y="-375.1" font-family="Arial Bold" font-size="18.00" fill="#000000">posts</text>
<text text-anchor="start" x="367.5" y="-375.1" font-family="Arial" font-size="14.00" fill="#000000"> </text>
<text text-anchor="start" x="375.5" y="-375.1" font-family="Arial" font-size="14.00" fill="#666666">[BASE TABLE]</text>
<polygon fill="none" stroke="#000000" points="274,-332.5 274,-361.5 522,-361.5 522,-332.5 274,-332.5"/>
<text text-anchor="start" x="281" y="-344.3" font-family="Arial" font-size="14.00" fill="#000000">id </text>
<text text-anchor="start" x="304" y="-344.3" font-family="Arial" font-size="14.00" fill="#666666">[int]</text>
<polygon fill="none" stroke="#000000" points="274,-303.5 274,-332.5 522,-332.5 522,-303.5 274,-303.5"/>
<text text-anchor="start" x="281" y="-315.3" font-family="Arial" font-size="14.00" fill="#000000">title </text>
<text text-anchor="start" x="327" y="-315.3" font-family="Arial" font-size="14.00" fill="#666666">[varchar(255)]</text>
<polygon fill="none" stroke="#000000" points="274,-274.5 274,-303.5 522,-303.5 522,-274.5 274,-274.5"/>
<text text-anchor="start" x="281" y="-286.3" font-family="Arial" font-size="14.00" fill="#000000">content </text>
<text text-anchor="start" x="342" y="-286.3" font-family="Arial" font-size="14.00" fill="#666666">[varchar(5000)]</text>
<polygon fill="none" stroke="#000000" points="274,-245.5 274,-274.5 522,-274.5 522,-245.5 274,-245.5"/>
<text text-anchor="start" x="281" y="-257.3" font-family="Arial" font-size="14.00" fill="#000000">fishing_spot_type_id </text>
<text text-anchor="start" x="439" y="-257.3" font-family="Arial" font-size="14.00" fill="#666666">[int]</text>
<polygon fill="none" stroke="#000000" points="274,-216.5 274,-245.5 522,-245.5 522,-216.5 274,-216.5"/>
<text text-anchor="start" x="281" y="-228.3" font-family="Arial" font-size="14.00" fill="#000000">prefecture_id </text>
<text text-anchor="start" x="387" y="-228.3" font-family="Arial" font-size="14.00" fill="#666666">[int]</text>
<polygon fill="none" stroke="#000000" points="274,-187.5 274,-216.5 522,-216.5 522,-187.5 274,-187.5"/>
<text text-anchor="start" x="281" y="-199.3" font-family="Arial" font-size="14.00" fill="#000000">meeting_place_id </text>
<text text-anchor="start" x="409" y="-199.3" font-family="Arial" font-size="14.00" fill="#666666">[varchar(255)]</text>
<polygon fill="none" stroke="#000000" points="274,-158.5 274,-187.5 522,-187.5 522,-158.5 274,-158.5"/>
<text text-anchor="start" x="281" y="-170.3" font-family="Arial" font-size="14.00" fill="#000000">meeting_at </text>
<text text-anchor="start" x="364" y="-170.3" font-family="Arial" font-size="14.00" fill="#666666">[datetime]</text>
<polygon fill="none" stroke="#000000" points="274,-129.5 274,-158.5 522,-158.5 522,-129.5 274,-129.5"/>
<text text-anchor="start" x="281" y="-141.3" font-family="Arial" font-size="14.00" fill="#000000">max_apply </text>
<text text-anchor="start" x="357" y="-141.3" font-family="Arial" font-size="14.00" fill="#666666">[int]</text>
<polygon fill="none" stroke="#000000" points="274,-100.5 274,-129.5 522,-129.5 522,-100.5 274,-100.5"/>
<text text-anchor="start" x="281" y="-112.3" font-family="Arial" font-size="14.00" fill="#000000">user_id </text>
<text text-anchor="start" x="342" y="-112.3" font-family="Arial" font-size="14.00" fill="#666666">[int]</text>
<polygon fill="none" stroke="#000000" points="274,-71.5 274,-100.5 522,-100.5 522,-71.5 274,-71.5"/>
<text text-anchor="start" x="281" y="-83.3" font-family="Arial" font-size="14.00" fill="#000000">created_at </text>
<text text-anchor="start" x="364" y="-83.3" font-family="Arial" font-size="14.00" fill="#666666">[datetime]</text>
<polygon fill="none" stroke="#000000" points="274,-42.5 274,-71.5 522,-71.5 522,-42.5 274,-42.5"/>
<text text-anchor="start" x="281" y="-54.3" font-family="Arial" font-size="14.00" fill="#000000">updated_at </text>
<text text-anchor="start" x="364" y="-54.3" font-family="Arial" font-size="14.00" fill="#666666">[datetime]</text>
</g>
<!-- apply_posts&#45;&gt;posts -->
<g id="edge1" class="edge">
<title>apply_posts:post_id&#45;&gt;posts:id</title>
<path fill="none" stroke="#000000" d="M347.2096,-662.1579C396.2464,-653.2536 356.8806,-575.5971 337,-518.5 322.1756,-475.9244 288.8244,-481.5756 274,-439 260.6277,-400.5948 233.3333,-347.5 274,-347.5"/>
<polygon fill="#000000" stroke="#000000" points="346.9662,-662.1779 336.6301,-658.5152 341.9831,-662.589 337,-663 337,-663 337,-663 341.9831,-662.589 337.3699,-667.4848 346.9662,-662.1779 346.9662,-662.1779"/>
<text text-anchor="start" x="7.5" y="-672.5" font-family="Arial" font-size="10.00" fill="#000000">FOREIGN KEY (post_id) REFERENCES posts (id)</text>
</g>
<!-- outbox -->
<g id="node2" class="node">
<title>outbox</title>
<polygon fill="#efefef" stroke="transparent" points="780,-750 780,-784 1013,-784 1013,-750 780,-750"/>
<polygon fill="none" stroke="#000000" points="780,-750 780,-784 1013,-784 1013,-750 780,-750"/>
<text text-anchor="start" x="824" y="-763.6" font-family="Arial Bold" font-size="18.00" fill="#000000">outbox</text>
<text text-anchor="start" x="870" y="-763.6" font-family="Arial" font-size="14.00" fill="#000000"> </text>
<text text-anchor="start" x="878" y="-763.6" font-family="Arial" font-size="14.00" fill="#666666">[BASE TABLE]</text>
<polygon fill="none" stroke="#000000" points="780,-721 780,-750 1013,-750 1013,-721 780,-721"/>
<text text-anchor="start" x="787" y="-732.8" font-family="Arial" font-size="14.00" fill="#000000">id </text>
<text text-anchor="start" x="810" y="-732.8" font-family="Arial" font-size="14.00" fill="#666666">[varchar(255)]</text>
<polygon fill="none" stroke="#000000" points="780,-692 780,-721 1013,-721 1013,-692 780,-692"/>
<text text-anchor="start" x="787" y="-703.8" font-family="Arial" font-size="14.00" fill="#000000">event_type </text>
<text text-anchor="start" x="870" y="-703.8" font-family="Arial" font-size="14.00" fill="#666666">[varchar(255)]</text>
<polygon fill="none" stroke="#000000" points="780,-663 780,-692 1013,-692 1013,-663 780,-663"/>
<text text-anchor="start" x="787" y="-674.8" font-family="Arial" font-size="14.00" fill="#000000">event_data </text>
<text text-anchor="start" x="870" y="-674.8" font-family="Arial" font-size="14.00" fill="#666666">[json]</text>
<polygon fill="none" stroke="#000000" points="780,-634 780,-663 1013,-663 1013,-634 780,-634"/>
<text text-anchor="start" x="787" y="-645.8" font-family="Arial" font-size="14.00" fill="#000000">aggregate_id </text>
<text text-anchor="start" x="885" y="-645.8" font-family="Arial" font-size="14.00" fill="#666666">[varchar(255)]</text>
<polygon fill="none" stroke="#000000" points="780,-605 780,-634 1013,-634 1013,-605 780,-605"/>
<text text-anchor="start" x="787" y="-616.8" font-family="Arial" font-size="14.00" fill="#000000">aggregate_type </text>
<text text-anchor="start" x="900" y="-616.8" font-family="Arial" font-size="14.00" fill="#666666">[varchar(255)]</text>
<polygon fill="none" stroke="#000000" points="780,-576 780,-605 1013,-605 1013,-576 780,-576"/>
<text text-anchor="start" x="787" y="-587.8" font-family="Arial" font-size="14.00" fill="#000000">channel </text>
<text text-anchor="start" x="848" y="-587.8" font-family="Arial" font-size="14.00" fill="#666666">[varchar(255)]</text>
<polygon fill="none" stroke="#000000" points="780,-547 780,-576 1013,-576 1013,-547 780,-547"/>
<text text-anchor="start" x="787" y="-558.8" font-family="Arial" font-size="14.00" fill="#000000">created_at </text>
<text text-anchor="start" x="870" y="-558.8" font-family="Arial" font-size="14.00" fill="#666666">[datetime]</text>
<polygon fill="none" stroke="#000000" points="780,-518 780,-547 1013,-547 1013,-518 780,-518"/>
<text text-anchor="start" x="787" y="-529.8" font-family="Arial" font-size="14.00" fill="#000000">updated_at </text>
<text text-anchor="start" x="870" y="-529.8" font-family="Arial" font-size="14.00" fill="#666666">[datetime]</text>
</g>
<!-- posts_fish_types -->
<g id="node4" class="node">
<title>posts_fish_types</title>
<polygon fill="#efefef" stroke="transparent" points="441,-706 441,-740 675,-740 675,-706 441,-706"/>
<polygon fill="none" stroke="#000000" points="441,-706 441,-740 675,-740 675,-706 441,-706"/>
<text text-anchor="start" x="448" y="-719.6" font-family="Arial Bold" font-size="18.00" fill="#000000">posts_fish_types</text>
<text text-anchor="start" x="569" y="-719.6" font-family="Arial" font-size="14.00" fill="#000000"> </text>
<text text-anchor="start" x="577" y="-719.6" font-family="Arial" font-size="14.00" fill="#666666">[BASE TABLE]</text>
<polygon fill="none" stroke="#000000" points="441,-677 441,-706 675,-706 675,-677 441,-677"/>
<text text-anchor="start" x="448" y="-688.8" font-family="Arial" font-size="14.00" fill="#000000">id </text>
<text text-anchor="start" x="471" y="-688.8" font-family="Arial" font-size="14.00" fill="#666666">[int]</text>
<polygon fill="none" stroke="#000000" points="441,-648 441,-677 675,-677 675,-648 441,-648"/>
<text text-anchor="start" x="448" y="-659.8" font-family="Arial" font-size="14.00" fill="#000000">post_id </text>
<text text-anchor="start" x="509" y="-659.8" font-family="Arial" font-size="14.00" fill="#666666">[int]</text>
<polygon fill="none" stroke="#000000" points="441,-619 441,-648 675,-648 675,-619 441,-619"/>
<text text-anchor="start" x="448" y="-630.8" font-family="Arial" font-size="14.00" fill="#000000">fish_type_id </text>
<text text-anchor="start" x="546" y="-630.8" font-family="Arial" font-size="14.00" fill="#666666">[int]</text>
<polygon fill="none" stroke="#000000" points="441,-590 441,-619 675,-619 675,-590 441,-590"/>
<text text-anchor="start" x="448" y="-601.8" font-family="Arial" font-size="14.00" fill="#000000">created_at </text>
<text text-anchor="start" x="531" y="-601.8" font-family="Arial" font-size="14.00" fill="#666666">[datetime]</text>
<polygon fill="none" stroke="#000000" points="441,-561 441,-590 675,-590 675,-561 441,-561"/>
<text text-anchor="start" x="448" y="-572.8" font-family="Arial" font-size="14.00" fill="#000000">updated_at </text>
<text text-anchor="start" x="531" y="-572.8" font-family="Arial" font-size="14.00" fill="#666666">[datetime]</text>
</g>
<!-- posts_fish_types&#45;&gt;posts -->
<g id="edge2" class="edge">
<title>posts_fish_types:post_id&#45;&gt;posts:id</title>
<path fill="none" stroke="#000000" d="M430.7541,-662.144C381.3414,-653.0955 417.6025,-574.2483 441,-518.5 460.5211,-471.9879 502.4789,-485.5121 522,-439 537.7378,-401.502 562.6667,-347.5 522,-347.5"/>
<polygon fill="#000000" stroke="#000000" points="431.0347,-662.1674 440.6253,-667.4844 436.0174,-662.5837 441,-663 441,-663 441,-663 436.0174,-662.5837 441.3747,-658.5156 431.0347,-662.1674 431.0347,-662.1674"/>
<text text-anchor="start" x="195.75" y="-647.5" font-family="Arial" font-size="10.00" fill="#000000">FOREIGN KEY (post_id) REFERENCES posts (id)</text>
</g>
<!-- saga_instance -->
<g id="node5" class="node">
<title>saga_instance</title>
<polygon fill="#efefef" stroke="transparent" points="1117,-721 1117,-755 1343,-755 1343,-721 1117,-721"/>
<polygon fill="none" stroke="#000000" points="1117,-721 1117,-755 1343,-755 1343,-721 1117,-721"/>
<text text-anchor="start" x="1131.5" y="-734.6" font-family="Arial Bold" font-size="18.00" fill="#000000">saga_instance</text>
<text text-anchor="start" x="1229.5" y="-734.6" font-family="Arial" font-size="14.00" fill="#000000"> </text>
<text text-anchor="start" x="1237.5" y="-734.6" font-family="Arial" font-size="14.00" fill="#666666">[BASE TABLE]</text>
<polygon fill="none" stroke="#000000" points="1117,-692 1117,-721 1343,-721 1343,-692 1117,-692"/>
<text text-anchor="start" x="1124" y="-703.8" font-family="Arial" font-size="14.00" fill="#000000">id </text>
<text text-anchor="start" x="1147" y="-703.8" font-family="Arial" font-size="14.00" fill="#666666">[varchar(255)]</text>
<polygon fill="none" stroke="#000000" points="1117,-663 1117,-692 1343,-692 1343,-663 1117,-663"/>
<text text-anchor="start" x="1124" y="-674.8" font-family="Arial" font-size="14.00" fill="#000000">saga_type </text>
<text text-anchor="start" x="1200" y="-674.8" font-family="Arial" font-size="14.00" fill="#666666">[varchar(255)]</text>
<polygon fill="none" stroke="#000000" points="1117,-634 1117,-663 1343,-663 1343,-634 1117,-634"/>
<text text-anchor="start" x="1124" y="-645.8" font-family="Arial" font-size="14.00" fill="#000000">saga_data </text>
<text text-anchor="start" x="1200" y="-645.8" font-family="Arial" font-size="14.00" fill="#666666">[json]</text>
<polygon fill="none" stroke="#000000" points="1117,-605 1117,-634 1343,-634 1343,-605 1117,-605"/>
<text text-anchor="start" x="1124" y="-616.8" font-family="Arial" font-size="14.00" fill="#000000">current_state </text>
<text text-anchor="start" x="1230" y="-616.8" font-family="Arial" font-size="14.00" fill="#666666">[varchar(255)]</text>
<polygon fill="none" stroke="#000000" points="1117,-576 1117,-605 1343,-605 1343,-576 1117,-576"/>
<text text-anchor="start" x="1124" y="-587.8" font-family="Arial" font-size="14.00" fill="#000000">created_at </text>
<text text-anchor="start" x="1207" y="-587.8" font-family="Arial" font-size="14.00" fill="#666666">[datetime]</text>
<polygon fill="none" stroke="#000000" points="1117,-547 1117,-576 1343,-576 1343,-547 1117,-547"/>
<text text-anchor="start" x="1124" y="-558.8" font-family="Arial" font-size="14.00" fill="#000000">updated_at </text>
<text text-anchor="start" x="1207" y="-558.8" font-family="Arial" font-size="14.00" fill="#666666">[datetime]</text>
</g>
<!-- schema_migrations -->
<g id="node6" class="node">
<title>schema_migrations</title>
<polygon fill="#efefef" stroke="transparent" points="1448,-663 1448,-697 1689,-697 1689,-663 1448,-663"/>
<polygon fill="none" stroke="#000000" points="1448,-663 1448,-697 1689,-697 1689,-663 1448,-663"/>
<text text-anchor="start" x="1455" y="-676.6" font-family="Arial Bold" font-size="18.00" fill="#000000">schema_migrations</text>
<text text-anchor="start" x="1583" y="-676.6" font-family="Arial" font-size="14.00" fill="#000000"> </text>
<text text-anchor="start" x="1591" y="-676.6" font-family="Arial" font-size="14.00" fill="#666666">[BASE TABLE]</text>
<polygon fill="none" stroke="#000000" points="1448,-634 1448,-663 1689,-663 1689,-634 1448,-634"/>
<text text-anchor="start" x="1455" y="-645.8" font-family="Arial" font-size="14.00" fill="#000000">version </text>
<text text-anchor="start" x="1516" y="-645.8" font-family="Arial" font-size="14.00" fill="#666666">[bigint]</text>
<polygon fill="none" stroke="#000000" points="1448,-605 1448,-634 1689,-634 1689,-605 1448,-605"/>
<text text-anchor="start" x="1455" y="-616.8" font-family="Arial" font-size="14.00" fill="#000000">dirty </text>
<text text-anchor="start" x="1501" y="-616.8" font-family="Arial" font-size="14.00" fill="#666666">[tinyint(1)]</text>
</g>
</g>
</svg>
